/* XPM */
static char *_e68c3c4344d4c43fae8c2b65e97d252vFv2w6mQYN2h9jHU[] = {
/* columns rows colors chars-per-pixel */
"64 64 225 2 ",
"   c #001D00",
".  c #001500",
"X  c #012501",
"o  c #012B03",
"O  c #052D0A",
"+  c #0A2E0C",
"@  c #082908",
"#  c #033205",
"$  c #043309",
"%  c #0B340D",
"&  c #07390C",
"*  c #0A390D",
"=  c #0C3307",
"-  c #11330F",
";  c #0E2C10",
":  c #132F13",
">  c #0D3411",
",  c #0E3B12",
"<  c #053812",
"1  c #123513",
"2  c #123C14",
"3  c #143C19",
"4  c #1B3D1D",
"5  c #1A371B",
"6  c #213C1D",
"7  c #0C440C",
"8  c #14400F",
"9  c #0E4015",
"0  c #134215",
"q  c #134219",
"w  c #1C431D",
"e  c #194C18",
"r  c #175419",
"t  c #23521E",
"y  c #1E611E",
"u  c #1F5322",
"i  c #234B24",
"p  c #264C28",
"a  c #2A4D2C",
"s  c #274725",
"d  c #235323",
"f  c #265A2A",
"g  c #2B5B2D",
"h  c #295727",
"j  c #2F5932",
"k  c #305333",
"l  c #365D38",
"z  c #1F6121",
"x  c #29612F",
"c  c #246229",
"v  c #2D6332",
"b  c #3B623C",
"n  c #356838",
"m  c #37723C",
"M  c #42673E",
"N  c #43723E",
"B  c #3F6B41",
"V  c #3C7441",
"C  c #3E7846",
"Z  c #456647",
"A  c #437A46",
"S  c #4E734E",
"D  c #4D7C4D",
"F  c #417543",
"G  c #4A6F50",
"H  c #557A56",
"J  c #577B58",
"K  c #4D7C52",
"L  c #5F7C60",
"P  c #4B814E",
"I  c #4D8852",
"U  c #538454",
"Y  c #528B55",
"T  c #598C5C",
"R  c #59845B",
"E  c #58945A",
"W  c #63925E",
"Q  c #5E8A62",
"!  c #5D9764",
"~  c #638062",
"^  c #648C63",
"/  c #6A8B6A",
"(  c #68956B",
")  c #649A67",
"_  c #749F74",
"`  c #6AA46E",
"'  c #73A675",
"]  c #74AC7A",
"[  c #79A879",
"{  c #76B17B",
"}  c #79B57D",
"|  c #7BBC7F",
" . c #75C77B",
".. c #80AA7C",
"X. c #7DAC84",
"o. c #7FBB84",
"O. c #7DB584",
"+. c #7ACC82",
"@. c #85B788",
"#. c #95BF9A",
"$. c #93B695",
"%. c #8DB291",
"&. c #82C485",
"*. c #82CC85",
"=. c #85C48B",
"-. c #8AC68D",
";. c #84CC8B",
":. c #8BCB8D",
">. c #85D48B",
",. c #8BD48D",
"<. c #87D98C",
"1. c #8BDA8E",
"2. c #84D787",
"3. c #90DB8F",
"4. c #8BC691",
"5. c #8DCD92",
"6. c #8BCA96",
"7. c #92C594",
"8. c #93CC95",
"9. c #95C699",
"0. c #9BC49D",
"q. c #94CB99",
"w. c #9BCC9D",
"e. c #8DD393",
"r. c #8DDB92",
"t. c #8DD997",
"y. c #92D395",
"u. c #92DB95",
"i. c #95D49A",
"p. c #9AD39D",
"a. c #95DB9B",
"s. c #9ADB9D",
"d. c #98DE96",
"f. c #A1CE9E",
"g. c #A1DB9F",
"h. c #A1D59D",
"j. c #91E08F",
"k. c #8EE193",
"l. c #92E295",
"z. c #95E39B",
"x. c #9AE39D",
"c. c #97EA9E",
"v. c #9AE69B",
"b. c #9DCCA2",
"n. c #9EC1A0",
"m. c #9CD4A2",
"M. c #96DDA0",
"N. c #9DDCA2",
"B. c #99D6A5",
"V. c #A3CDA4",
"C. c #A6CEA9",
"Z. c #AACEAB",
"A. c #A1C5A1",
"S. c #A2D4A5",
"D. c #A2DCA5",
"F. c #A9DBA5",
"G. c #A5D4AA",
"H. c #ABD5AD",
"J. c #A4DCAA",
"K. c #ABDBAD",
"L. c #AAD1A7",
"P. c #B0DAAE",
"I. c #ADD5B1",
"U. c #AEDCB2",
"Y. c #B2D6B3",
"T. c #B3DCB4",
"R. c #B4DDB9",
"E. c #BADDBB",
"W. c #B9DBB7",
"Q. c #97E6A0",
"!. c #9DE3A3",
"~. c #9DEAA4",
"^. c #9FE4A9",
"/. c #96E8A0",
"(. c #9DF0A2",
"). c #A2E3A6",
"_. c #A2EAA6",
"`. c #A5E3AA",
"'. c #AAE4AD",
"]. c #A5EAAB",
"[. c #AAEAAD",
"{. c #A8E6A7",
"}. c #B1E3AD",
"|. c #A5F3AC",
" X c #AAF1AD",
".X c #A7E5B1",
"XX c #ADE7B2",
"oX c #ADE5B2",
"OX c #A6EBB1",
"+X c #ADE9B1",
"@X c #ADEBB2",
"#X c #ACECB8",
"$X c #B2E4B4",
"%X c #B2EBB5",
"&X c #B4E4B9",
"*X c #BAE4BB",
"=X c #B4ECBA",
"-X c #BAEDBC",
";X c #B8E7B7",
":X c #ACF2B3",
">X c #AFF0B8",
",X c #B2F2B6",
"<X c #B5F2BB",
"1X c #BBF2BD",
"2X c #B6FCBB",
"3X c #B8F8BC",
"4X c #C0D4B9",
"5X c #C1E7BD",
"6X c #C0F0BD",
"7X c #BEE5C1",
"8X c #BCECC1",
"9X c #BDF4C1",
"0X c #BFFAC4",
"qX c #C1E6C2",
"wX c #C3EBC4",
"eX c #C7EBC8",
"rX c #C3F5C4",
"tX c #C3FCC5",
"yX c #C6F4C9",
"uX c #CAF4CB",
"iX c #C5FBCA",
"pX c #CAFBCB",
"aX c #CDFFD2",
"sX c #D2FDD3",
"dX c #D0F5D3",
/* pixels */
").{.%X).`.:X_.,Xs._.).{.%X%X%X%X<X.XK.I F XX%X[.%X,X].|.].|.OX[.[.].{.{.:X_.:X<X<X`.`.J.( 8XwX=X=X<X<X+X<X1X%X%X%X,X'.=X+X+X3X.X",
"D.i.s.-.!.!.).s.!.`.`.8.i.+X).'.'.B.B.I V J..XN.).x.v._.Q.Q.].Q.d.)._.{.v.~._.).)..XJ.oXv H.*XS..XD.).D.i.'.{.).{.%X{.).).D.].m.",
"N.,XD.[.!.^.].).Q.^.].+XOX>X).J.%X'.m.A V .X+X[.!.].x.x.z.M.a.~.c.!.!.~.;.~.~.Q.N.).m.XXn T.'.K.m.].`.`.s.`.D.{._.D.m.N.OXM.s.).",
"M.`.^.].!.].].<XM.:X`.).`.#X#X`.%X).1Xn m J.D.).:X_.|.c./.z.~.~.c.t._.~.z.!.Q.a.a.s.`.%XF L.;XoXi.^.^.].s.).@X X).].).!.].`.N.M.",
"M.^.p.^.!.Q.].@X].a.@X[.>X`.M.OXJ.1X'.E m ).[.N.v.v.v.c.r.c.t.z./.l._.z././.z.Q.s.).e.3Xv F.$X+X).:X[.s.].).a.s.{.[.N.].s._.].a.",
"`.m.`.D.`.].p.{.).N.+XJ.OX'.oX%X'.}.K.A U D.J.).Q.).].a.).M.a.Q.Q.Q.].a.a.Q.!.OXs.D.'.,XN }.K.;XJ.5.[.).D.[.).p.{.`.i.[.p.D.`.).",
"oXV.S.9.T.H.U.H.U.G.G.R.R.H.T.&X$XE.*XZ M *XH.K.K.J.oX'.m.K.J.G.S.G.oXK.N.J.K.G.K.K.K.H.M 5XL.T.$XK.;XH.H.K.Y.T.R.;X&XT.S.H.G.G.",
"X # O $ X $ X - 3 % + $ X & X % X X 1 J 1 % > < X X $ # # # X $ $ X $ $ # # # X * o o t M s - O O $ X X o X $ $ + % 2 2 % = X $ ",
"%X1X;X$X1X6X-XD =X$XrX;X}.1X-XtX9X9X8X9XyX-X$XrX1X6X6X-X;X6X$XD { =X}.;X.X'.-XD.'.-X[.%X=X;XK.1X9X;X=X$X-X;XuX-Xi rXU.;X1X%X-X1X",
"s.).g.y.{.p.}.N 4.`.$XS.).D.[.g.`.`.K.#XK.oX=X9Xg. X).<X'.7.$XD F.=X;X'.`.@X'.D.8.g.N.s.+X{.D.p.-.=X.X`.%X'.-XS.d $X'.#X'.'.D.y.",
"x.x.D.x.N.`.w.E @..XF.D.[.^.,X,X#XN..X.X<X8X9XB.D.'.p.%XD.;X$XR $X$X$XJ.N.N.%X[.@X@X!.^.`.`.M.i.^.'.J.`.`.#X'.oXv `.N.J.=X`.).J.",
"x.s.a.].s.D.m.A -.`.%X`.&.e.[.[.^.^.`.#X.X>XOX^.@X).[.%X%X$Xf.v m.XXF.'.<X`.).m.OX`.^.a..X^.OX].^.].).).=XJ.=X.Xc m.oXm.m.OXa.OX",
"x.z.u.`.M.N.J.Y 4.`.`.'.`.].Q.>X`.^.].N.`.N.>X%X<Xp.@X+X%XK.;XP m.`.oX'.'.@XOX`.`.`.].i.).M.`.^.i.].].).'.J.%XXXx `.`.m.).`.@X_.",
"].s.).).N.K.S.U O.%X9X$X).`.N.N.[.s.D.oXJ.oX.XJ.XXN.+X;XT.;X&Xj @.$X&XoX=XoXK.oX%X`.`.'.'.J.'.'.OXp.oX'.D.$XK.6.h XXK.p..X.XD.m.",
".Xm.H.G.G.G.R./ %.Y.Y.I.I.K.G.K.T.H.*XeXqX7XqXT.T.*XT.Y.E.W.4X~ R.R.Y.E.R.H.R.V.5XK.T.K.E.L.W.P.T.G.*XH.*XY.E.$.a Z.A.C.V.-XK.$X",
"o # # * q O O L O O O > . # # X X = + ; + + @ % 3 % 2 % @ 1 > L p > 4 1 & % % O O + > + @ - -   2 * X X O + O J p X 2 > 2 2 2 2 ",
") ` 4.o.`.B.=X.XXX@.D.9X9X<X'.-X=XrX&X_ S sXuXdXH.iXiXtXpXaXrXyXuXpXyXyXaXrXiXpX.X&XyXqX%.uX9X8X=XJ.%X0X'.'.m.D.%XD.J.$X3X$X3X<X",
"a.t.a.u.e.u.a.a.a.x.Q.).N.s._.s.).D.oXU g P.;X;X1X%XD.N.+X+X'.%X{.D.y.[.J..X`.@XB.`.$X$Xw b.J.N.`.^.[.| !.^.a.a.).{.[.).).{.a.`.",
"+.>.r.r.v.l.u.v.1.x.).u. Xv._.g.i.=XN.) F -XP.K.=X.X`.!.'.OXJ.'.).D.[.s.{.D.[._.M.N.D.}.d K.N.B.>X!.u.!.M.z.a._.].).N.a.B.^.M.e.",
"z.1.v.1.~.u.l.r.l.l.1.1.v.v.,.v.a.a.m.P ' J.$X1X.X[.`.@X^.[.m.{.{.{.i.2X[.,Xi.M.Q.M.p.'.u F.J.N.^.@X].a.^.a.].!.u.5.:X].N.M.i.M.",
"z.1.t.k.>.l.z.1.r.l.k.>.r.*.,.,.Q.Q.a.A _ m.%X%X[.).!.OX`.).s.'.).).a.r.x.[.!._.e.e.m.}.e p.h.).M.).e.i.a.!.;.).!.).e.N.OX`.^.!.",
"e.z.t.a.t.Q.e.a.s.^.Q._.s.:X_.!.D.D.'.V ) J.'.J.XX).`.{.@X`.'..XD.D.).!.`.a.s.].).%Xg.6X2 f.F.D.`.J.D.D.M._.J.a.s.D.q.`.).oXN.N.",
"p.J.N.8.N.D.p.J.'.p.w.p.m.+X`.J.K.T.*XH ^ 7XW.7XT.&X&XH.&XG.*XR.R.U.K.G.K.K.K.q.S.m.G.*Xs E.C.R.H.$XU.'.U.J.$Xm.L.U.V.*Xb.K.&XU.",
"& o # $ o $ & o # * o 9 # X & & & 2 , J a X @ % X $ o & 3 O > > > $ X 9 < 9 0 o X $ $ b l + < X 0 # & 0 # 9 * * * * > 3 , , $ , ",
"{ o.B.8.S.B.oXaX9.O.9.B.m.oX$X=X7.p.7.-X@.8XK.w.oXD.J.$XS.&X;X-XD X.U.`.`.+Xq.).OXN.`.oX'.=X.XN.`.'.%X@X[.[.'.D.0 +X;X1X%X=X%X`.",
").N.i.B.`.J.D.! m.B.oXJ.).'.m.`.[.D.+XD.`.=X.XD.D.XX[.F.XX=XK.-Xf p.a.a.M.a.u.y.u.r.;.u.&.5.M.^.y.y.y.e.e.a.).[.r p.p.[.).y.y.s.",
"d.i.i.y.y.g.s.Y ` s.N.N.).y.&.&.[.<XN.).OXB.N..X,X).`.%X.X'.=XK.* h.d._.u.l.3.x.2.1.<.l.,.u.l.>.,.r.u.u.y.a.i.].r x.-.s.a.a.a.N.",
"s.a.a.].s.5. XE ..i.a.s.s.x.x._.].).N.M.^.>X^.N.5.N.%X).J.J.J.9Xz p.{.u.r.l.u.3.c.k.k.2.>.v.k.>.r.u.r.t.z.!.!.2Xr :.e.y.M.OXa.a.",
"u.).Q.s.).a.OXI *.).y.M.^.u._.!.e.g.).OX).].i.].].).[.,Xg.p..XXXr ).a.Q.<.r.1.3.l.2.k.l.k.3.1.1.>.u.l.a.x.z.e.].r 8.a.s.M.5.!.u.",
"M.:.s.N.'.J.i.! -.D.J.N.`.D.s.N.i.).F.{.<Xa.N.`.[.D.%X}.S.$XT.*Xt 9.N.y.e.x.s.u.d.u.2.l.u.y.a.s.a.a.x.a.!.g.s.3X7 p.p.w.m.].N.N.",
"J.w.G.G.b.G.R./ 0.b.I.U.T.G.S.9.f.w.F.K.4.oXU.G.P.*XW.L.P.qXW.W.5 Z.B.B.N.p.S.F.p.m.8.p.p.G.L.w.S.h.'.S.K.S.V.;Xw G.f.V.0.V.b.b.",
"$ # & o > > % B a o < O X # 9 * 2 - X % 3 2 o o 2 * 8 = o = 1 H k . < $ X o $ = 7 # # $ 2 * * 2 , $ 0 * 0 $ 2 b 2 = % $ , 3 < , ",
"}.'.[.'.{.+X;X%Xy.].OX.X$X=X-X-X=XU.B.O.R oX=X#X<XtX-X X,X%X`.=X;X`.oX%X@X@X3X=X<X.XoXK.T rXwX-XrX0X%X'.1X1X1XrXrX6XoX9X-X%X=X=X",
"g.a.N.5.s.g.].).a.`.^.u.D.}..X`.oXm.B.V V oX.X).].a.x.!.3.y._.!.!.).Q.^.a.!.].!..XN.`.$Xe S.=X9.D.m.].D.-.+Xm.).[.,X`.D.D.N.`.N.",
"s.@X).^.s.{.].s.^.^.a.OX'.`.)..X.X'.8.n V B.<X`.].!./.|.d.a.a.|.~.z.~.~.;.].Q.a.M.).D.=Xv U.U.K.i.).`.D.D.'.{.`._.D.).D.`.D.N.N.",
").].Q.`.[._._.3XQ.^.#X].+X%X'.'.%X'.<XV v J.J.^.:X!.c.z.~.z.Q.z.u.v.].l.~.t.Q.M.e.a.J.=Xf J.=X$XN.'.].]._.i.<X Xs.D.].[.].a.s.^.",
"s.u.a.a.).).s.,X].>.OXM.,X).D.@XD.D.`.A V OX`.Q.u.~.~.c.<.k.r.~.v.<.|.v.t.c.c.~.!.].y.`.x p.'.F.D.].].a.).{.p.s.!.[.s.N.N.!.[.!.",
"'.m.`.N.+X[.p.`.`.^.#X`.;XJ.;XXXJ.&XF.R P b.J.'.!.`.~.a.!.!.M.Q.x._._.d.!.u.].].e.i.'.1Xf L.P.-X%X8.%X).D.%X`.8.'.%Xi.g.m.).[.].",
"&Xm.G.b.$XC.V.T.b.G.b.*XW.V.H.P.Y.*XY.l b eXT.S.oXF.XXXXw.J.J.G.D.D.D.'.p.'.J.oX$XK.;XL.S Y.Y.Y.$XH.&XK.K.L.*X;XY.;XT.&XL.V.L.U.",
"o * $ $ O w - 3 q $ > > w 2 = + - - - S a o X o , * * & # $ X 2 o = = , , , $ $ X $ $ g b k 2 - $ 2 $ % o * + X + - 2 % 2 * * $ ",
"1X3X;X).-X}.5X..=X.X8X$X$XrX6XpXrXtX8XuXyX8X8X1X1X1XtX6X;X6X&XW ( iX;X-X-X;X=X-X{.1X6X6X;X%X}.;X%X1X$X&X6X$X-XpXd -XT.$X%X1X&X1X",
"p.a.g.8.D.p.}.W =.`.'.F.F.D.[.D.`.J.N.=XN.oX%X<Xi.%XD.+X+X8.K.U $X-X}.+XoXOX).D.p.i.5.y.[.).).y.-.'.%X.XXX%X;X$Xx '.S.'.%X`.D.8.",
"!.!.a.).).}.f.[ o.^.N.J.{.D.,X[.+XN.`.`.<X.X3XN.`.OXD.'.F.;X-X( &X8X&Xm.K.oX%X'.{.].g.2X).).s.y.D.].J.).$XoX$X.Xv J.J.'.'..X+X).",
"s.[.s.].N.h.7.) 6.OX#X`.8.u.[.,X^.OX.X>X#X9X#X`.<XN.,X1X1XoXV.K K.S.oX%X@XJ.'.q.OX!.[.e.[.^.].[.m.OX.X).=X`.oX0Xx S.`.D.`.).`.].",
"_.e.i.].s.p.'.^ +.B.B.OX).[.!.,X`..X@X).`.`.#X:X:Xs.,X`.=X=XU.Q oX`.%X+XXX1X,X{.,XN.].s.y.).].).a.N.[.`.@XD.@X<Xc J.J.i.=X).[.].",
").p.`.{.J.K.f.^ X.#X8X8X+X].i.'.<XJ.`.%X.XoX.X`.,Xm.+X=XH.*X7X/ b.U.oX;X-XoX'.}.D.$X}.'.D.J.J.XX,XD.).J.$XK.&XJ.e oXK.S.J.OX+XD.",
"=Xb.H.L.H.Y.4X~ X.7XE.H.G.&XJ.h.T.L.E.5XE.&XT.Y.Y.;X$XY.*XE.W.b R.qXE.W.Y.Y.5X0.*XL.W.R.H.Z.R.I.T.P.T.T.E.T.E.eXk n.A.H.V.*X*XH.",
"$ o O % $ 4 6 / , O % > $ o o X o X 1 X + + + @ 2 X X @ 1 ; : L + @ - % 2 1 % + 2 X 4 + 5 + 1 4 2 O X , 3 X @ H 4 1 - + % 2 * $ ",
"E E } { %X`.1X1X=XN.J.0X0XtXK.<X%X9X$XQ / dXyXyXb.9XrX1XaXiX8XyXsXrXrXpXuXrXpXiXS.;XuXuX^ eX8X&X=X`.9X<XXXXX.XF.=Xb.S.;XrXoX0X9X",
"y.y.!.a.y.e.a.x.a.s.^.a.D.M.M.a.N.`.oXh j I.R.G.&X+X).i.).'.oX-X'.+X8.`.'.`.[.%X`.{.;XF.R C.B..X.X`.N.5.a.^.:.).).,X{.s.].`.m.).",
",.,.u.1.l.d.z.v.e.v.z.v. X_.].Q.a.@XG.m b R.U.8X1X`.).).OX=XK.N.'.).{.[.D.D.].].i.N.h.}.b ;XK.N.3XM.i.`.s.z.s.).).N.).).5.).M.i.",
"3.u.l.l.x.u.1.v.a.v.r.a.z.u.x.s.!.).i.A ] S.8X#X<X].`.:X^..XN.[.[.:Xx.2X].6Xy.!.!.`.h.5XN h.h.`.s._.].~.!.,.!.x.,.y.{.[.).a.i.a.",
"l.1.r.l.1.l.u.1.<.l.z.r.1.>.u.l.!.x.i.Y ) G..X%X].s.{. X].).m.`.{.s.a.u.!.s.{.s.>.,.m.}.h h.g.s.].x.e.e.x.x.,.x.{.).y.y.[.{.).x.",
"u.u.u.1.u.x.a.,.a.s.x.^.!.[.!.x.s.i.'.T ' J.$XoX;X`.{.).%X].'.XXp.}.[.).[.N.s.).N.'.D.}.p b.'.J.S.`.).].s.[.D.6.g.g.p.F.D.D.).D.",
"8.B.F.8.J.S.m.m.$Xm.q.B.B.$XJ.S.K.$XH.p Q qXZ.*XK.$X$XT.K.H.;XE.*XR.G.S.S.T.S.S.J.b.G.L.s R.b.U.&XT.K.S.$XG.*XS.H.H.V.I.G.I.G.R.",
"e * X $ $ , X # $ X $ # o o * # # $ $ ^ a @ 3 o = * X * o = 3 % 3 3 o X q < 9 o X # X k k O O 3 $ $ * & O 9 $ o $ 2 , ; < > $ 3 ",
"] } m.p.w.8.m.iXw.] @.6.8.'.K.<X7.7.h.1X..1X$XD.'.K.%X;XS.&XrX-X[ @.'.J.N.i.w.`.OXN.#X<XoXoX#Xq.XXXX.XXX.X@XoXoXt -X1XiX-XoX&XoX",
"g.).i.y.).%X_.) p.N.[.N.`.).s.).).).%X).3X'.m.D.'.D.`.'.D.$XF.'.0 S.i.a.M.e.i.u.e.>.>.t.&.5.Q.OXu.u.i.e.i.a.).{.r i.p.{.D.i.5.^.",
"y.u.u.y.a.D.d.E { s.N.s.D.a.&.=.].=X'.N.'.`.D.@X'.`.=X+X%X'.=X=Xd F.y.~.a.l.u.d.2.c.+.<.t.l.z.k.,.e.t.z.a.z.u._.c s.-.{.N.a.i.].",
"s.s.s.{.s.8.].E } s.i.{.x.s.u.).].`.a.Q.].^.a.N.N.M.=XN.`.m.m.1X7 g.).v.>.l.u.l.(.<.c.<. .t.r.+.r.r.l.u.v.!.v.2Xc &.*.s.s.~.a.e.",
"v.v.d.g.).a._.Y o.i.y.a.).u.x.x.=.[.).{.].[.!.].].`.).9XD.m..X1Xe m.~.t.<.l.>.j.j.<.2.k.v.l.r.1.1.l.l.v.l.c.:._.y y.s.s.v.;.{.1.",
"g.5.g.s.N.J.m.Y -.D.s.i._.D.v.D._.m.).m.,Xs.M.`.XX%XoXoXG.R.K.-X0 i.a.i.r./.>.d.v.u.r.l.r.,.u.a.y.u.a.s.s.Q.i.,Xe s.D.4.`.D.a.D.",
"H.m.w.$Xb.I.R.Q 7.G.&X*XU.K.S.V.V.V.K.$Xw.'.H.K.U.T.E.Y.Y.E.W.eX% C.B.B.q.N.K.F.p.s.4.i.F.S.K.F.m.9.$X8.&Xb.b.H.j C.C.V.C.V.0.U.",
"X % X 1 + O , G Z ; O O < $ 2 $ 1 @ - - o q 3 % 1 1 5 5 5 6   Z s @ X < X $ & = 0 o q * $ X 2 2 2 > & $ > 3 > s k 1 ; : > ; > + "
};
