/* XPM */
static char *e2a639b479834c42b7ae9282a984e3368NrWpHFhZiTKtFOx[] = {
/* columns rows colors chars-per-pixel */
"64 64 226 2 ",
"   c #01022D",
".  c #050829",
"X  c #070A33",
"o  c #0C0D34",
"O  c #0C0D3C",
"+  c #040537",
"@  c #0E1135",
"#  c #0E113C",
"$  c #131535",
"%  c #13143C",
"&  c #16193D",
"*  c #1A1D3D",
"=  c #181939",
"-  c #131433",
";  c #201F3F",
":  c #1D223C",
">  c #22263F",
",  c #0D0D43",
"<  c #070840",
"1  c #0E1141",
"2  c #0E1049",
"3  c #131543",
"4  c #191644",
"5  c #161943",
"6  c #1B1C43",
"7  c #1B1D4B",
"8  c #15164A",
"9  c #1C1D53",
"0  c #191B56",
"q  c #11114F",
"w  c #201E46",
"e  c #211E4B",
"r  c #211F50",
"t  c #1E2046",
"y  c #1E214A",
"u  c #1E2153",
"i  c #212245",
"p  c #252945",
"a  c #23244B",
"s  c #26294E",
"d  c #2A2B4D",
"f  c #232452",
"g  c #282753",
"h  c #262952",
"j  c #2B2B52",
"k  c #2C2D59",
"l  c #26265A",
"z  c #2E3154",
"x  c #2F315C",
"c  c #34365A",
"v  c #33354E",
"b  c #191C62",
"n  c #2C2B64",
"m  c #23286A",
"M  c #2F3368",
"N  c #383965",
"B  c #3B3C75",
"V  c #2A2D72",
"C  c #403F68",
"Z  c #434569",
"A  c #43437C",
"S  c #484975",
"D  c #4F507A",
"F  c #555879",
"G  c #52546B",
"H  c #494883",
"J  c #545584",
"K  c #595A83",
"L  c #58588B",
"P  c #5A5A97",
"I  c #5F6186",
"U  c #5F6098",
"Y  c #63658B",
"T  c #6B6C8A",
"R  c #686899",
"E  c #737599",
"W  c #717492",
"Q  c #5F5CA1",
"!  c #7879A8",
"~  c #7D7CB7",
"^  c #6A6BA7",
"/  c #7D7DCC",
"(  c #817EB2",
")  c #807FC1",
"_  c #7F81B0",
"`  c #8D8EBB",
"'  c #8485BA",
"]  c #8E90BB",
"[  c #9A9DBE",
"{  c #8583C5",
"}  c #8B8CC4",
"|  c #8C8CCB",
" . c #8886CA",
".. c #908DCC",
"X. c #8F90CA",
"o. c #9B9CC3",
"O. c #9394CD",
"+. c #9C9CCC",
"@. c #9696C6",
"#. c #8D8CD2",
"$. c #8C8DDC",
"%. c #8585D5",
"&. c #918FD3",
"*. c #8D91D3",
"=. c #8D91DE",
"-. c #9494D4",
";. c #9995D6",
":. c #9798D2",
">. c #9C9CD4",
",. c #9494DB",
"<. c #9996DC",
"1. c #9699DD",
"2. c #9C9CDC",
"3. c #A19FCE",
"4. c #A19FDB",
"5. c #9FA1CA",
"6. c #9CA0C6",
"7. c #9EA0D2",
"8. c #9FA0DB",
"9. c #A3A3CD",
"0. c #AAADCE",
"q. c #A3A4D4",
"w. c #A6A9D4",
"e. c #ABACD4",
"r. c #A3A3DC",
"t. c #A9A6DC",
"y. c #A7A9DC",
"u. c #ABABDD",
"i. c #A8A6D5",
"p. c #B0AFDC",
"a. c #AEB1D4",
"s. c #AEB1DB",
"d. c #B3B5D5",
"f. c #B3B4DC",
"g. c #B6B9DD",
"h. c #BABBDC",
"j. c #B7BAD5",
"k. c #AEB2CF",
"l. c #8C8DE0",
"z. c #928FE5",
"x. c #8E91E5",
"c. c #9494E4",
"v. c #9997E4",
"b. c #9699E2",
"n. c #9C9CE3",
"m. c #9595E9",
"M. c #969AEB",
"N. c #9C9CEB",
"B. c #9997EA",
"V. c #9D9CF2",
"C. c #A19FE3",
"Z. c #A19EEA",
"A. c #A19FF3",
"S. c #9EA0E2",
"D. c #9EA0EB",
"F. c #9DA0F2",
"G. c #A4A4E4",
"H. c #A9A6E3",
"J. c #A7A9E2",
"K. c #ABABE4",
"L. c #A4A3EB",
"P. c #A9A6EB",
"I. c #A6A9EB",
"U. c #ACACEB",
"Y. c #B1AEE4",
"T. c #B0AFEB",
"R. c #AFB0E2",
"E. c #AFB0EA",
"W. c #B3B3E4",
"Q. c #B9B7E4",
"!. c #B7B9E3",
"~. c #BABCE5",
"^. c #B3B3EC",
"/. c #B9B6EC",
"(. c #B7B9EB",
"). c #BBBBEC",
"_. c #A4A3F3",
"`. c #A9A6F1",
"'. c #A6A9F3",
"]. c #ACABF2",
"[. c #ACABFA",
"{. c #A5A4FB",
"}. c #B1AEF2",
"|. c #B0ADFA",
" X c #AEB0F3",
".X c #AEB1FD",
"XX c #B4B3F3",
"oX c #B8B6F3",
"OX c #B7B9F1",
"+X c #BCBBF3",
"@X c #B5B4FB",
"#X c #B9B6FB",
"$X c #B6B9FC",
"%X c #BEBEFE",
"&X c #BCBBFB",
"*X c #C0BFE7",
"=X c #C1BFEA",
"-X c #C1BFF3",
";X c #C0BEFB",
":X c #BFC1DF",
">X c #BEC1E4",
",X c #BEC1EB",
"<X c #BFC1F3",
"1X c #BFC0FC",
"2X c #C2C4E3",
"3X c #C2C3EC",
"4X c #C7C9EC",
"5X c #C2C3F4",
"6X c #C7C8F4",
"7X c #CACBF5",
"8X c #C4C4FC",
"9X c #C8C6FE",
"0X c #C7C9FB",
"qX c #C9C9FF",
"wX c #CBCCFD",
"eX c #C8C6F5",
"rX c #CFD1FD",
"tX c #CED1F4",
"yX c #D3D4FE",
"uX c #D6D9FE",
"iX c #DBDDFF",
"pX c #D6D7FB",
"aX c #D0CFF9",
"sX c #DEE1FF",
"dX c #E1E4FF",
"fX c #E9ECFF",
/* pixels */
"^.^.8XU. X1X<X<XD.1X XOX<X8X<X<X9XU.^.L B OX9XOX+XqX1X1X&X%X&X%X%XoX+X8X8X$X8XrX8X<XoXJ.E uXaXeX9XqXwX8X8XqX8X8X1X8X1X1X+X&XrX%X",
"J.J.G.2.U.S.E.S.XXD.J.>.8.).^.E.OXH.>.R A U.E.U.oXG.].L.U.n. XP.n.].r.J.'.[. XK.K.^.G.XXZ g.3Xy.^.U.E.H.2.^.K.^.OX+X^.K.U.E.].8.",
"J.1XU. XS.$X XE.'. X XOXoX1XE.OX&X/.H.H A +XE.oXP.].'.'.v.Z.Z.`.D.'.G. X%.'. XG.I.^.8.&XD !.f.(.G.E.%X^.I.U.I.E.OXE.G.H.E.G.G. X",
"U.@XU.$X].XXOXqXI.1XXXK.^.9XoXU.&XOX^.H B U.I.U.&X@X_.L.[.Z.N.@X_.n.@XG._.'.S.1.2.G.G.1XJ s.5X).8.P.U.XX2.U.+X%XU.(.K.E.XX].U.U.",
"G.H.n.}.XXG.K.oX|.L.9X+XoX^.U.oX^.oX8XR A ^.XXP.Z.`.|.A.v.N.Z.B._.L.[.I._.[.v.].2.U.<.qXA u.5X-XU.#X$X8.%XU.S.K.XX&XG.U.G.XX@XP.",
"OXr.XXG.XXoX+.K.T.G.oXY.).)././.W.+XK.J H E.^.r.U.P.`.C.@X`.v.v.Z.n.XXG.Z.v.XX&XG.J.oX8XK h.Q./.K.2.+XE.K.^.r.>.E.OX8.(.G.U.U.J.",
"!.q.+.@.W.q.a.g.t.u.3.h.Q.e.f.=X>Xf.~.Z N 2Xq.f.K.y.^.XXO.T.T.H.>.J.w.y.y.U.r.u.u.q.W.W.D h.p.*X,Xq.,Xq.e.a.~.>Xs.,X(.s.w.u.w.s.",
"O 3 3 % O 7 X 6 f 4 4 & - & & & @ X * I i 6 6 5   O r 1 8 O o 3 4 + 7 1 1 8 1 + 7 + % k Z j = o o 3 O . # X # @ 5 t h y u 5 . 7 ",
"5X9XwX+X8XwX7XK 5X+XeX=X-X9XeXiXyXwXwXyXyXwX0XyX9XuXuX9X5XaX/.K ' ).3X5XOXOX8XE.(.8X&X8X-X/.-X8XqXwXeX/.eXeXyXuXh rX+X8XwX5XwXwX",
"r.K.G.;.+XJ.u.J X.oX=XY.Q.t.;XH.W./.u.5Xf.5X).qXr./.K.5XW.3.W.J ).qX8X).W.1XW.E.>.I.r.r.-XoXJ.t.:.oXOX).5X!.wX!.u (.!.&XoX^.J.+.",
"U.U.G.G.H.T.q.^ } Y.^.Y.Y.H.;X;XXXt.^./.5XwXwXY.Y.W.t.-Xp.-X=XR ^.-X).y.OX8.8X^.^.&XU.U.}.T.;.4.T.oX^.W.W.+X+X<Xn U.H.H.oX^.Y.t.",
"C.].C.#X}.J.r.L ..oX-XT.} 4.;X-XOXU.8X/.;XoX8XK.+XY./.-X-X/.3.C u.W.).^.&XE.E.r.&XU.XXP.#X@X;XXXU.&XU.U.5X!.5X8Xn G.@XG.G.oXy.&X",
"P.I.Z.|.P.4.(.R ..XXJ.^./.T.H.&X^.U.oXJ.XXY.;X;X;Xt.-X;XeX/.*XK p./.5XoXoX9X^.XXXXH.$XG.U.U.oXT.C.XXT./.).!.+X8XM G.U.G.oXK.&X).",
"XX2.U.OX8.W.W.Y ( -XqX(./.XXC.T./.K.y.5Xt.=XY.i./.u./.-XQ.eX*XN ` 5XW.(.wXW.(.E.+XoX(.(.Y.T.Y.+XXXr.+XW.u.~.).5.l ^.^.2.+XoX^.u.",
").7.y.y.R.q.d.E ! 3Xf.0.a.s.p.q.g.9.2XtX=X*X4Xf.h.*Xh.e.j.h.h.T :Xd.h.3Xe.d.>X6.3Xf.s.a.~.f.f.s.).q.~.d.>Xk.:Xo.6 q.+.5.+.4Xf.d.",
"# , 3 5 y % % T 3 % % *   o O % % % $ = $ = - w d w a ; $ p = T v w j = p * * & * * t : = & i . a a % X = * o T c % 7 a s j a j ",
"^ ^ :.} ^.E.qXOX;XX.H.uXuXyXR.0X0XiX7X( F fXiXdXa.iXsXiXdXfXpXsXsXsXsXsXsXpXsXdX^.5XuX7Xo.uXyXeX8XoX5XrXoX^.J.r.+Xt.^.+XqX5XyX8X",
"S.n.n.n.,.2.n.S.n.G.].2.I.J.E.r.K.y.Y.L c g.2X~.rX(.).r.).3X).).E.R.} ,X>X!.!.<XH.^./.).x 3.p.K.^.G.&X) U.P.n.U.#XXXXX^.E.E.r.^.",
"$.$.c.c._.b.n._.c.N._.L.$X].U.I.2.&Xr.! S (.).).8XT.H.^.^.OX^.J.OXI.OXE.y.y.E.^.G.S.G.oXx Y.t.G.qXU.2.G.G.n.L.].#X'.XX].S. XU.X.",
"V.c.B.B._.N.N.N.B.A.v.c.n.D.n.L.L.C.4.P ~ ^.-X8X8X&X}.&XXXU.K.oXE.XXI.1X<XrX8.U.n.'.G.OXN W.J.Y.I.$X].I. X2.@X'.,.=.#X XG.1.-.I.",
"A.m.V.B.c.N._.c.m.N.A.$.c.%.N.=.Z.n.P.L ^ t.8X8XoXT.}.;XT.@XO.oXL.[.n.n.4.OX#X].,.-.G.oXr 4.t.U.OXU.-.-.4.U.&.].|.@X#.T.8X%XP.U.",
"z._.v.n.,._.,.n.D.L.n.@XL.#XI.G.P.2.XXH ! W.W.K.+XH.&XK.+XE.(.&XJ. X}.^.^.r.4.OXU.&Xr.0Xg e.p.T.J.K.J.K.4.T.T.J.4.G.H.H.OXXXU.G.",
",.G.2.X.r.r.q.y.K.7.>.O.>.^.R.K.Y.W.5XK Y >Xe.3Xs.g.f.a.W.e.~.a.=Xu.q.t.t.Y.u.3.4.+.q.~.j h.e.p.Q.5Xp.Q.p.p./.3.i.W.@.Q.9.p.e.~.",
"q + , 1 + % # + # 7 1 9 3 O 3 7 4 f 5 T z @ @ * & & @ t s = 6 i = 4 O l e a g O O 7 6 S S = w % g 4 e g 4 g e a w w a j a a w a ",
" . .G.>.K.q.7XfXy.' >.y.y.oX8XqX>.q.+.eX` eX).q.3XQ.).3Xw.3X7X7XL ( ^.^.oX-Xr.^.1X^.OX@XW.-XW.J.XXXX+X8X^.+X^.y., -X<XrXwX5X5XW.",
"U.U.:.U.J.^.y.R :.J.oXH.U.U.H.U.T.^.1XH.-X8XW.K.K.(./.^.oX5XW.5Xl 4.#.L.<.;.<.<.,.b. .C. . .n.].2.#.n.*.-.n.G.1X0 4.K.K.J.>.X.K.",
"Z.L.2.#.O.U.T.P ~ U.I.U.n.G. . .;X9XXXU.}.C.G.XX;XU.^.&XOX^.qXoX2 U.v.#Xb.'.1.n.x.b.$.M.*..XN.l.z.c.c.x.D.N.c.$Xb n.#.I.1.S.I.J.",
"`.n.I.@X].;.%XQ ~ n.n.U.L.n.P.@X].].U.C.U.@X}.U.;.U.&XK.K.H.^.rXV ;.[.M.x.F.=.M.M.M.M.x.%.M.M.x.x.m.V.m.V..XD.qX0 c.*.S.I. XI.n.",
"Z.].Z.P.P.4.XXQ ,.L.<.`.].Z.P.}.,.P.@X$XXXXXG.XXOXXXoX9XU.y.OXoXl P.[.B.l.M.b.M._.x.m.m.F.M.B.c.l._.V._.Z.N.D.$Xb -.S.P.I.1.'.S.",
"Z.2.H.J.T.^.G.R  .}.G.U.P.H.G.T.r.J.E.U.&X2.H.K.oXY.+X+Xu.).W.eXl ;.C.Z.b.N.1.1.v.,.b.,.,.n.v.v.v.,.L.n.G.C.G.8Xq -.2.:.S. X XS.",
"u.@.i.e.i.e.W.R @.q.f.i./.q.9.` o.6.e.a.o.~.u.s.e.>Xg.0.a.2Xd.2X= p.O.4.4.4.y.y.+.>.} >.>.@.4.+.3.3.u.e.p.[ 0.7X% u.3.3.+.+.+.u.",
"% % 4 O % & 6 S k 3 5 , % % a i d * X y 7 h % % s a p : * : i T Z   4 8 < , % 7 f 8 f 4 a g a d g 6 s i s d i Z t i * w a a 6 y ",
"<XOX1X(.E.<X+X<X:.+X^.oX5X,XwXwX5X(.K.} L OX8X+XqXdX<XqX<X<X+X9X8XY.-X&X;X&XrX9XyX+X).W.E pXiX9XuXyX3XeXwXyXwXuXyXiX3X7X5X0XwX<X",
"J.8.G.-.8.J.XXXXG. XU.2.K.).K./.(.^.>.H A ^.E.I.E.S.G.I.S.<.[.L.G.XX;.U.U.I.}.H.oXJ.J.8Xk a.=Xo.p.Y.^.t.O.U.^.y.<X5Xs.R.u.r.J.J.",
"G.8XE. XK.E.XXI.I.@XC.&XoXW.oXK.OXK.:.A H L.8XXX XU.P.XXn.L.v.#X`.U.}.}./ ].P.2.J.H.J.8XC Q.Q./.>.^.^.XXH.&XH.oX^.U.R.E.^.U.U.].",
" XXXU..X XE.E.qXI.@X#XP.OX8XXXOX1XE.1XB B U.I.I.$X X'.I.L._.N.[.Z.N.|.C.|.L.L.G.-.2.H.&XC p.eX-XG.U.].XX'.,.;X#XU.P.U.$X}.n.L.].",
"S.G.2.U. XJ.U.%X#X,.8XU.1X^.Y.OXR.(.K.H H OX XG.n.].'.Z.b.c.c.A.[.B.$X]._.n.L.P.G.&X<.oXC u.Q./.^.#XXXC.@X}.n.P.].%XU.U.L.@X&X].",
"OXG.U.U.XXOX>.R.U.].U.^.5Xu.).5Xu.(.y.R H J.K.E.G.}.}.C.U.L.L.C.n.G.XXS.n.<.@X&X-.y.W.9XB p.Q.-X+X:.#XT.H.;XU.O.oXXX;.H.G.U.}.}.",
"<X7.>.+.!.5.w.,Xq.>.q.,Xh.e.e.f.s.>Xg.N N tX5.w.u.y.W.oX:.r.J.r.y.q.J.R.8.OX>.!.(.u.(.e.F p.f.f.(.W.(.e.W.i.eX~.~.~.~.~.q.q.t.Y.",
"3 5 7 4 3 s * t y 5 y & g i 4 & : & : F c @ # & f 5 f 4 4 1 5 5 3 3 1 y y 7 u 5 o 3 o N S z 4 = $ 6 = & @ 6 % . % * a i 6 w 6 6 ",
"8X0XqXR.qX5XtX] 8X/.eX).).yXrXdXrXuXrXiXyXuX7XrXqXrXiXwXwXwX,XE ! sX<X0X5X+XqX8X<XqXrXrX;X-X=X-X0XwX3X6XtX3XpXdXz yX(.7X6X5XeX0X",
"8.G.G.:.K.:.f.!  .T./.Y.W.W.+XJ.).E.q.eXu.,X5XqXi./.W.5X(.@.a.I eX).<X).(.5XK.r.8.>.:.>.;XT.T.4.} ).).Q.<X).,X).k (.y.^.-X).).+.",
"P.].G.G.G.(.5.` ..T.T.H.^.T.oX8X XK.W.W.eX5XyXy.^.+Xu.-XW.eX>X! ,XwX(.K.K.u.9XXX@XOXI.oX].}.C.;.U.K.oX(.(.8X+X5XN J.t.^.oX^.T.K.",
"S.XXn.oXXXy.} ~  .#X;XY.:.4.&X;X X&X&XqX5X8X5XK.oXT.-X;XeX~.w.I (.u.(.(.5X/.r.-.OXK.&X2.;X].#X;XG.#XoXr.qXr.5XyXn G.oXH.OXoXU.oX",
"@X1.<.&XC.r.Q.(  .}.H.=X&XXXP.9XXXU.&X^.^.(.5X8X+X2.-X-X9X=Xh.T f./.-X-X-X9X8XoX&XU.(.H.C.}.oXoXG.oX}.-X+X(.(.yXn T.U.;.#X^.XX;X",
"U.8.(.oXG.K.0.E ~ ;X9X-XT.oXG.oX8XK.).W.!.)./.y.-Xt.;X5XQ.).3XW f.3XQ.-X-X~.).W.W.+X/.(.Y.T.Y.T.8XO./.K.R.~.W.3X7 W.y.K.oXoX^.K.",
"0X7.u.w.i.0.j.W ! /.f.f.W.W.K.+.(.q.g.4X>X:Xg.f.f.eX*Xe.*Xh.j.Z j.2X*X2Xd.j.4Xo.~.f.f.h.p.p.g.d.!.~.g.d.:X:X2XpXj o.o.5.o.3X2Xd.",
"1 O @ 3 6 s p W 4 3 6 6 o O %   O % 6 @ : $ = $ w @ o & w : = T = = ; ; p > * % a $ d : w * w d 6 6 X a p . : F z : i t t i & 6 ",
"U P _ { qX<XqXyXqXK.W.sXiXyX(.0X;XiX/.R T dXiXuXe.yXiXuXsXfXtXsXfXsXuXsXsXuXsXsXs.6XiXtXW pXwXeX9XW.wXwX).).^.y.wX+.R.).uX!.uXqX",
"b.n.F.S.*.*.8.S.G.2.I.G.U.K.y.7.4.Y.Q.N N f.~.e.5XW.K.>.(.).y.7X!.(.o.W.s.s.(.+X^.E.<Xf.W 9.t./.oX(.^...n.XX-.].H.9XR.E.E.^.>.).",
"x.$.b.1.L.n.I.N.=._.L.'.].L.$XI.C.&XH.S N ~.f.).rX^.W.K.W.1X).q.(.E.E.+XE.K.^.^.1.K.3.eXS /.t.4.qX8.2.U.n.n.2.].$XU. XU.8.E.G.-.",
"m.M.M.{._.B.c._.L.N.c.v.L.I.D.G.C.H.4.L ~ u.wX).5X;XOX;XU.^.J.(.E.+XG.8X^.rXG.}.U. Xr.-XK p.H.T.8.%X XI.@X-.[.`.#.,. X$XD.2.S.D.",
"{.m.V.m.m._.V.$.$.N.N.c.c.%.N.n.`.G.2.P ! y.(.qXOXH.+X;XoXXX:.oXE.U.C.4.G.G.#XP.| <.4.W.N t.H.H.oX8.C.2.n.P.,.`.&X&XC.4.1X$XU.I.",
"B.B.D.b.$.I.n.b._.B.L.N.`.#XP.L.C.4.^.R ! W.u.!.8XK.&Xy./.^.).W.r.U.XXH.1Xy.T.T.2.XXr.-Xc q.Y.^.E.^.J.^.H.T.P.;.C.C.2.H.U.U.}.P.",
"1.2.8.:.y.8.:.7.K.r.O.r.r.E.t.i.u.!.~.a I 3Xa.3Xu.=XW.y.).q.~.(.*XQ.p.t.u.y.q.+.u.+.0.9.z d.9.W.!.Q.u.i./.u.eX3.i.i.3.p.3.p.t.W.",
"u 7 X 1 O 5 # O 3 1 1 O 1 8 8 1 3 # 3 ! z o 6 % & 7 % a % 6 s 6 w a O O f u h 3 O O % N Z & % a 6 6 a 6 4 g 4 3 4 e g & i 6 4 g ",
"_ ' J.i.y.u.K.dXy.'  .4.>.OX(.rX+.O.t.qX' eX5XK./.(.yXeXy.eXrXrX` ] oXR.H.r.J.OXoXK.1XrX1X,X^.:.&X).OXoX^.&XoXR.f eX0XuXqX,XeX+X",
"I.U.>.r.K.oXW.^ 8.K.+XH.Y.R.J.H.oXU.;X^.9X).Y.H.^.^.T.+X/.&X/.(.u i.:.2.S.-.>.1.2.$.#.*./ | P.$X-.,.S.-.n.U.U.XXn 4.K.).J.>.X.R.",
",.G.2.-.2.J.P.R { G.G.C.U.<.{ ..XX8XT.G.@XH.XXT.+XK.&X+XoX).5X8Xl U.,.[.b.F.c.b.l.V.%.c.b.'.N.x.%.b.c.D.D.v.,. Xm S.| E.S.8.S. X",
"L.I.I.XXG.r.8XP ~ I.n.L.P.G.C.}.@XU.T.U.^.U.G.T.r.H.-XU.W.r.K.9X2 S.[.v.c.b.N.D.{.m.V.c./ x.c.l.V.l.F.{.F.'.'.qXm | *.S.I.I.I.S.",
"|.Z.L.].XX<.XXP ) Z.<.C.`.C.Z.].*.U.@XXXU.XXG.oXXXXX/.qXu.y.-XqX9 U.`.B.c.N.$.N.B.c.z.V._.N.B.B.l.[.m.m._._.$.$XV *.S.G. X*.'.b.",
"`.,.P.U.U.U.K.P &.T.P.P.XXP.Z.T.r.U.J.E.;Xr.U.K.+X(.).W.i.7Xp.wXr 4.Z.v.B.N.-.n.'.v.c.B.b.v.<.n.n.b.I.n.C.P.<.&X0 r.r.@.E.I.S.I.",
"G.7.>.W.3.R.Q.R } i.W.^.K.u.3.+.5.7.s.R.4.!.u.u.a.h.h.g.j.j.2X4Xo 3.:.4.&.r.J.y.O.8.O.:.4.+.q.q.>.@.Y.+./.@.3.i.g e.@.3.3.+.5.u.",
"  1   5 o o % F D @ % O 6 % a 4 6 5 a & o f h t i * p > : > - G v .   3 + O 4 @ f 1 l u 4 # a a d w w 4 w j * v C i ; p * w i 6 "
};
