/* XPM */
static char *_a4e7fb0b6054c24ff4153f53d3aa3f47tihFmTvhvYmYuOM[] = {
/* columns rows colors chars-per-pixel */
"64 64 222 2 ",
"   c #1D001D",
".  c #210019",
"X  c #240122",
"o  c #2A0225",
"O  c #2D032B",
"+  c #2E0B2C",
"@  c #31032E",
"#  c #320A2E",
"$  c #34162F",
"%  c #340432",
"&  c #350B33",
"*  c #390B36",
"=  c #3B0739",
"-  c #3B0C3A",
";  c #360537",
":  c #351232",
">  c #391335",
",  c #3B1D37",
"<  c #3C133A",
"1  c #3E193C",
"2  c #371933",
"3  c #2F0A2E",
"4  c #410E3E",
"5  c #41143D",
"6  c #421A3E",
"7  c #3F0841",
"8  c #430C42",
"9  c #431542",
"0  c #481745",
"q  c #451A42",
"w  c #491A46",
"e  c #4C154B",
"r  c #4A1949",
"t  c #471C49",
"y  c #501B4F",
"u  c #5A145B",
"i  c #561B55",
"p  c #462143",
"a  c #492446",
"s  c #4C2848",
"d  c #512C4E",
"f  c #54274E",
"g  c #532351",
"h  c #542C52",
"j  c #5C245D",
"k  c #5C2D59",
"l  c #5B2757",
"z  c #5A3454",
"x  c #5A3657",
"c  c #613B5F",
"v  c #602C5D",
"b  c #641E66",
"n  c #642A63",
"m  c #642465",
"M  c #653D62",
"N  c #6B326B",
"B  c #673565",
"V  c #763D74",
"C  c #793C76",
"Z  c #7A3E79",
"A  c #694265",
"S  c #674565",
"D  c #7B437B",
"F  c #784876",
"G  c #7A5276",
"H  c #795576",
"J  c #81487E",
"K  c #81587E",
"L  c #834B82",
"P  c #804681",
"I  c #845283",
"U  c #865A84",
"Y  c #8B578A",
"T  c #935592",
"R  c #935A93",
"E  c #9B5C9A",
"W  c #91588D",
"Q  c #8A6386",
"!  c #886485",
"~  c #936391",
"^  c #9B639B",
"/  c #9A6997",
"(  c #9A7398",
")  c #90678F",
"_  c #A0649F",
"`  c #A1779F",
"'  c #A46CA2",
"]  c #A668A4",
"[  c #AD74AB",
"{  c #AA77A7",
"}  c #B37FAF",
"|  c #B57BB4",
" . c #B87FB6",
".. c #BD7ABE",
"X. c #B576B5",
"o. c #C37EBF",
"O. c #C67AC6",
"+. c #D67FD7",
"@. c #BD82BC",
"#. c #B78BB6",
"$. c #BD96B9",
"%. c #B894B5",
"&. c #AD82AA",
"*. c #C08CBE",
"=. c #C283BE",
"-. c #C194BE",
";. c #C299BE",
":. c #BF81C0",
">. c #C584C5",
",. c #C58BC3",
"<. c #C98DC6",
"1. c #CC84CC",
"2. c #CD8DCC",
"3. c #C883C8",
"4. c #D184CF",
"5. c #D18CCF",
"6. c #C493C3",
"7. c #C994C6",
"8. c #C59AC3",
"9. c #C99BC6",
"0. c #CC93CB",
"q. c #CC9CCB",
"w. c #C799C8",
"e. c #D094CE",
"r. c #D19BCE",
"t. c #CE8BD1",
"y. c #CE85D0",
"u. c #D384D4",
"i. c #D38CD4",
"p. c #D88DD7",
"a. c #D584D9",
"s. c #D986DB",
"d. c #D78DD9",
"f. c #DB8CDC",
"g. c #CE94D0",
"h. c #D493D4",
"j. c #D994D6",
"k. c #D59BD4",
"l. c #D99AD6",
"z. c #D693D9",
"x. c #DB94DB",
"c. c #D69AD9",
"v. c #DC9BDB",
"b. c #E08DDF",
"n. c #E096DE",
"m. c #E19CDE",
"M. c #CAA3C6",
"N. c #CDA3CB",
"B. c #CEACCD",
"V. c #C9A4C5",
"C. c #D1A3CE",
"Z. c #D1ABCE",
"A. c #D5A4D3",
"S. c #D9A4D7",
"D. c #D5ABD3",
"F. c #D9ACD6",
"G. c #D7A3D9",
"H. c #DDA3DC",
"J. c #DDABDB",
"K. c #D5B2D4",
"L. c #D9B3D6",
"P. c #DCB2DB",
"I. c #DEB9DB",
"U. c #CFA6D0",
"Y. c #E1A3DE",
"T. c #E1ACDE",
"R. c #E0B3DE",
"E. c #E2BADE",
"W. c #DE8DE0",
"Q. c #DF94E1",
"!. c #DF9CE1",
"~. c #E18EE3",
"^. c #E394E3",
"/. c #E39DE3",
"(. c #E793E9",
"). c #E996EB",
"_. c #E69DE9",
"`. c #EA9DEB",
"'. c #E89FE6",
"]. c #F39FF4",
"[. c #DFA3E0",
"{. c #DEABE1",
"}. c #E3A3E3",
"|. c #E9A4E6",
" X c #E4ABE4",
".X c #E9ACE6",
"XX c #E6A3E9",
"oX c #EAA4EB",
"OX c #E6ACE9",
"+X c #EBACEA",
"@X c #F1ADEE",
"#X c #F1A3EF",
"$X c #E5B2E4",
"%X c #E9B3E6",
"&X c #E4BCE1",
"*X c #E8BBE6",
"=X c #E7B3E9",
"-X c #EEB1ED",
";X c #EBB3EB",
":X c #EDBAEC",
">X c #F1B4EE",
",X c #F1BAEE",
"<X c #EEACF1",
"1X c #EEA5F1",
"2X c #F1ACF2",
"3X c #F2A5F7",
"4X c #EEB3F1",
"5X c #F3B4F2",
"6X c #F3BCF3",
"7X c #FBB5FB",
"8X c #FABEFA",
"9X c #F9B2F6",
"0X c #EFC4ED",
"qX c #E6C1E2",
"wX c #F1C2EE",
"eX c #F3C9EF",
"rX c #F4C2F3",
"tX c #F9C3F6",
"yX c #FBC4FB",
"uX c #FECBFE",
"iX c #F5C9F4",
"pX c #FBD1FA",
/* pixels */
"[.}.oX[./.2XXX<Xz.1X/.oX+X<XOXOX>XY.Y.J C T.-XY.@X@X@X|.|.|.@X@X+X|.OXOX9XoX2X9X<X X+Xk.^ 0X*X=X-X5X5XOX-X-X+X-X-X-XOX-XOX.X5X.X",
"v.z.!.3.j.v.!./.!.XXv.5.g.+Xv.}.}.e.e.Y C Y.Y.m.Y.n.m.m./.x./.x.j./.v.XXQ./.oXQ././.v.H.B G.$XA.H.l.Y.m.h.}.}.v.}.OXv.x.Y.}.Y.j.",
"v.@Xv.XXm.m.|.n.!.}./.}.+X@XH.Y.OX Xv.C C .X@X|.n.`.(.n.W.W.f.`.n.^.^./.u.^.XXQ.!.}.j..XD G.A.H.v..XoX}.k././.}.}./.v.v.|.v.h./.",
"j.}./.}.'.oXoX9Xn.oX|.m.Y.+X.Xm.+XY..XZ N Y.j.m.@X`.].~.).(.).).^.f.1X(.W.^.Q.W.h.x.v.+XD U.=XH.5./.n.m.x.!.oX+X/.XX/.!.n.}.x.m.",
"j.n.j.n./.j./.|./.j.@X|.@X|.j.}.Y.-XOXR Z Y.XXv.n.).).).W.~.W.W.).W.3XQ.(.(.W.`.p./.t.7XN A.=XOXm.2X@Xn.oX/.x.x.'.@Xx.'.n.|.'.n.",
".Xl.m.v.Y. Xh.H.v.l..XH.}.Y.Y..XH. XS.F P H.H.v.!./.XXd._.).z.f.Q.^.!.Q.f./._.oXv.v.+XOXD F.F.J.Y.e.+XY.v.Y.l.0. X}.e. Xk.l.m.v.",
"A.9.q.-.A.q.A.D.A.C.9.F.J.C.R.R.L.F.I.M A P.C.A.k.k.H.[.g.G.k.A.e.k.k.G.l.v.G.U.A.w.F.C.S L.V.L.F.C.J.9.C.C.F.R.C.R.L.F.r.C.C.C.",
"@ - % * % < O < q < ; & # * & & O o > K < > 5 * @ % 7 * ; ; % & 7 O - - % = ; O 9 O & d S d : 3 # * O O # o # # * > 5 6 6 @ @ < ",
"OX6X:XH.;X6X;XI =XJ.:XOX X:X=XyX:X,X*X:XrX:X$X6X%X8X6X>X;X:X XK { *X[.$X[. XOXS.H.4X X%XOX{.J.:X:X%X;XJ.=X*X:X0Xg wXJ.$X:XOX=X;X",
"h.v.v.5. Xk.H.Z ,.H. XS. Xv. Xc.}.Y.}.%XH. X;X>Xl. XH.;XH.6.D.J H.:X=X[.}.+X}.H.h.z.k.v.OX[.c.k.0.OX}.}.-X X=XH.l H.}.OXH. XY.0.",
"}.!.l.v.l.H.2.^ @.Y.H.l.Y.Y.5XXX|.x.}.}.@X@X>Xm.m.Y.l..Xk.:XJ.~  X{.{.[.l.v.OXXX+XoX^./.XXXXd.i.v.oXv.[.[.OX}. XN k.k.v.|.H.Y.v.",
"x.x.j.oXv.v.j.J @. X+Xv.=.i.oX+X_.oXXX+X.X@X|.}.|.Y. X+X%XT.w.n k.{.G.{.<X}.[.h.XX_.|.i.XXXXoX'.v.|./.}.5Xv.;XOXm h. Xk.v.oXi.+X",
"/.n.j./.l.l.}.R <.j.v.+Xm.|.n.@X!.Q.oXQ.XXv.<X<X2Xv.oX+XOXJ. XG k.}.OXOX{.<X+XXXXX/.#Xx.}.!.'.'.x.|././.+XH.+XOXm H.v.v.XX!.oXXX",
"'.h.v.}.k.H.k.W [ ;X:X}. X}.v.v.OXc.G.OXc.[.[.c. Xz.OXOXH.*XJ.B @.{.{.{.OX}.H.[. Xv.H.}.H.H.v. X}.l.}.S.k.$X[.,.j H.G.k.}. XY.l.",
" X0.A.A.A.9.P.) &.D.D.C.q.F.A.r.D.N.P.&XI.P.&XK.J.P.P.U.F.L.K.! K.L.B.K.L.C.P.M.&XD.P.C.L.U.L.C.F.N.P.D.&XN.L.%.s V.$.N.;.R.P.D.",
"; ; ; - 9 & & K & & & <   ; % @ & : 3 : + : : , 7 1 7 < # 2 $ ! s < p > < > : & & * * : 3 : < X 9 9 O o & : + H d 3 < 2 w q w q ",
"E _ >.:.v.H.5XY. X..l.6X6X8XH.-X;XtX*X' H iXiXeXA.tXyX8XuXuX,XiXtXuX6X6XuX,XtXyXH.%XwXE.%.wXrXOX>X}.OX8XY.Y.l.k.T.Y.S. X5XOX>X>X",
"z.Q.z.i.i.d.i.v.j.x./.n.}.j.v.x.H.l.{.I k D.P.E.,XOX!.z.|.OXY.%XH.v.e..XY. XY.+Xn.m..XF.a 9.h.v.}.v.|...m.m.j.n.Y.}.oX}./.|.j.}.",
"1.1.d.u.'.u.f.^.p.n.x.x.oX/./.!.z.OXc.^ A *XG.{.OX/.Q.}.oX}.H.l.Y.m.}.l.Y.l.}./.n.l.e.%Xf A.c.!.5Xn.p.v.n.j.n.Y.#X}.v.x.x./.j.5.",
"Q.a.f.^.~.n.f.f.f.~.f.s.^.x.W.^.x.h.v.P ] G.{.6X4XoXXX1X/.|.v. X}.|.j.7X|.>Xj.m.j./.0.T.k A.c.!./.#X'.x.m.p.#Xn.5.4.oX|.x.x.i.x.",
"^.f.b.s.s.^.~.s.s.^.~.u.s.O.f.i.Q.x.v.D ] A.OX+XXX!./.1X'.'.5.}.l.m.n.p.n.oXm./.z.3.v.T.w q.v.!.x./.1.j.x.^.1.'././.i.v.@X/.|./.",
"u.x.p.p.u./.i.j.x./.p.|.p.2X/.n.x.k.}.D ' G.G.H. X}.XX!.+X XY.;Xl.Y.Y.m.}.l.l.Y.v.+Xh.*Xw 9.G.[.[.}.j.v.j.}.m.h.l.l.2.Y.Y. Xl.j.",
"0.0.k.*.l.0.k.k.Y.7.0.0.S.H.S.H.H.F.P.G ! I.D.I.D.F.J.A.J.C.F.Z.F.F.r.r.r.A.A.7.q.9.8.I.s Z.C.S.H.J.H.J.S.A.T.9.N.D.9.L.9.C.F.A.",
"8 & % = & - * @ % 4 & 5 % % = 4 - t > ! d o + & * & @ 5 9 & q > 5 @ @ e 4 0 w @ @ 8 - M c : 5 % t * 5 0 * w 5 5 < < 5 w 0 5 * 0 ",
"X.@.e.6.k.k. XuX0.| ,.e.r. X X;X7.0.,.*X&.;XJ.r.{.G.J.=Xq.=X*X%XJ ` }.[.|.}.h.S.+Xm. XY.H.%XY.e.v.}..X+XY.T.Y.S.e }.=X4X=X:X.XH.",
"v.l.e.h.v.H.k.^ 0.S.}.H.v. Xv.}.}.H..Xv.OX;X[.k.H. XOX[.}.;XH.OXv e.t.f.i.z.z.i.p.u.O.x.o.3.b.`.p.2.x.1.5.x.j.+Xi c.h.[.v.2.5.v.",
"j.h.j.2.t.H.k.T ] k.S.v.x.i.O.o.+X2X[.}.XXz.v.}.+Xv.v.+X X[.5X X4 v.u.3XW.Q.i.x.u.W.u.b.4.n.n.O.a.i.f.5.b.n.4.oXu x.>.!.i.p.^./.",
"x.j.x.|.h.g.+XR X.h.2.!.v.z.v.oX_.}.x.x.!.+X/.!.g.!.<X[.v.v.c.5Xj e.oXf.a.W.f.f.~.s.~.a.4.b.b.b.a.f.s.p.b.`.n.7Xu 1.t.i.n.oXf.p.",
"n./.x./. Xi.XXT 3.!.t.!./.i././.1.}.|.oX'.'.i.XXXX[.XX4Xv.c.OXOXi v.W.^.W.a.i.d.(.a.~.^.b.s.u.W.a.W.Q.^.n.^.p.oXu t.z.z./.t.^.p.",
"h.5.l.e.H.H.k.T @.H.c.k.}.v.n.v.j.v.Y.m.+Xh.[.v.OXH.$X{.r.{.H.%Xg 0.v.s.d.Q.z.t.z.p.+.u.i.d.z.i.i.i.Q.z.x.p.m.+Xe 0.0.h.h.}.}.v.",
"A.6.q.A.9.M.D.~ #.M.A.U.F.k.0.*.8.9.C.C.#.J.F.D.U.P.D.V.B.&XZ.I.2 V.<.h.k.0.q.G.0.0.,.h.0.8.M.q.r.q.H.C.S.9.8.P.9 N.;.;.-.9.*.C.",
"& * - @ * < < M h & & % ; & 0 < q < o 5 w w % O q q p > & & < H z . 4 = O O & < 0 - 4 * 9 w q 7 0 - r - w 5 5 A q : > < < 6 5 5 ",
"OX{.OX XH.OX.XOX2. XY. X+X XOX:X%XT.A.} I J.=X X.XuX>X+X+X;XH.4X%XS.+X@X|.@X>X5X6X X XG.) wX,X:XwX6X%X.X>X,X,X,XrXtX X6X:X%X%X%X",
"!.z.v.2.x.x.oX/.v.XXv.h.v. X.XY. Xe.0.V V H.v.H. Xx.x./.p.x./.x.m./.m.n.j.n./.v.XXv.v.OXg r.R.,.H.l.Y.k.<.OXl.v.}.>XY.v.l.l.H.l.",
"z.<Xm./.v.oX|./.x.}.j.|.|. XY.H.Y.Y.2.N D l.4X[./.'.^.`.s.x.W.1X^.n.`.`.y.`.^.x.z.v.l.OXB T.J.T.0.}.Y.m.v./.v.+XY.m.Y.Y.}.v.v.j.",
"/.|.v.|.oXn.|.9X/.'.+Xm.}.|..X}.;XY.OXC B l.!.!.2X`.).(.).^.(.).b.^.`.n.).s.^.x.i.x.v.;Xv k.R.T.k.|./.m.}.i.+XoXx.m./.oX}.x.x.v.",
"x.x.j.x./.^.v.2X|.3.@Xm.2X/.v.|.m.H.S.P Z  XXX!.f.`.).).W.W.+.(.(.f.].).W.^.^.).Q.|.2.}.N k.T.J././._.z./.XXz.x./.oXx.!.x.}.oX/.",
"|.v.m.v.OXXXh.}.m.v.Y.v.{.[.OXOXk.;XG.Y L c.[.c.!./.`.W.!._.Q.Q.^././.j./.d._.+X2.h.|.:Xv C.A.T.;X2.+X}.v.OX}.0.XXOX0.k.c.v.XX}.",
"$X7.r.8.J.q.w.E.w.q.9.&XP.N.U.D.D.L.N.x c I.D.N.G.r.{.}.0.k.G.U.l.k.S.H.0.H.G.J.J.A.P.N.F Z.Z.Z.J.A.P.N.G.C.P.G.F.P.L.P.N.6.q.D.",
"= 8 - - ; a 7 7 t & 9 - p 7 ; - : < : H h o O O t - t 7 - ; & 7 & * * 9 0 9 - 4 @ * * h A d < : O t < & # 1 & o & < p 7 7 < < - ",
"-X:X;XS.;XOX:X| ;XJ.;X{.{.6X6XyX6X6X:XrX,XwX:X:X=X,XtX6X;X*XE.W / tX X%X;X X;X5X X-X6X6X;X X=X=X:X=X=X=X=X$X:XiXg :X{.=X$X:X X:X",
"i.x.v.2.z.0.}.^ @.Y. XH.[.[.XXc.[.S.v.:XA..XOX>Xk.+X[.}.[.6.G.U %X$XJ.$XH.|.H.k.k.i.t.t.oXv.H.g.@..X}.OX X XOX XN  Xk.[.OX}.[.g.",
"m.x.j.m.v. X0.X.=.T.l.m.!.v.9X+XoXk.}.n.>XOX>Xl.[.}.!.{.H.$XR./ J.=X Xk.H. X2X}.|././.+X/.XXz.i.XXc.[.v.OXOX+X}.m v.l. XXX{.OXc.",
"x.|.j.Y.m.h.,.] =.Y.-XY.2.h.oX2X^.1XoX2X+X9XoX}.4X!.OX4X,XJ.C.L G.H. X X+Xv.v.2.oXx.1X1.2X/._.<Xz.oX+Xx.5Xv.OX8Xn c.[.c.!.!.XXoX",
"/.5.h.|.l.l.Y._ =.l.m. Xm.oX/.2X_.XXoXXX}.}.<X<XXX!.{.[.=X{.J.~ H. XOX{.<X5X-X+X2X/.}.n.x./.XX_.z.XX!.[.+X|.}.5Xm v.!.h.+X/.XX+X",
"/.e. XY.l.A.q._ [ %X%X.X}.}.h.+X+Xv.H. X[.}.{.v.OXc.4X4X{.=XR.) q.{.{.$XOX{.}.H.v.OXY. Xv.v.H.}.+Xe. X[.S.J.{.J.e {.S.k.[.OX+Xk.",
"$X8.F.N.N.Z.D.K ( L.J.C.A.R.k.w.F.U.L.&XP.L.P.A.{.P.P.N.D.K.B.c K.P.L.I.A.D.&X$.I.N.D.F.M.M.K.Z.D.D.D.N.E.D.I.qXz $.%.M.$.P.P.D.",
"* % @ * * 6 p ( < # * * * * % O O 3 : + : + & + : ; o & 1 : : ! : + < < q , * & q o p 2 2 : > p q & # 1 < + # H a < < > < < < < ",
"T T | | %X.X;X6X+Xl.H.yX6X8XY.>X%XrXT.K ) eXeXwXq.,XtX8XyXuX*XiXuXtX6XtXtXrXyXyXl.%XwX*X! *X:X=X=XH.4X5X}..XY.l.;X0.H.T.8XH.6X6X",
"x.4.n.i.i.i.n.x.x.x./.x.n.v.n.h.j.Y.T.l z Z.R.C.T.@Xx.5.[.OXH.=X X X0.}.H.H..X+Xm. X$XD.Q 9.k.[.OX}.}.3.j./.4.|.m.@XY.v.Y.|.x./.",
"4.u.p.p.f.u.x.^.p.n.x.^.oX^.oXx.h..Xr.V B T.S.T.5X/./.+X}.XX}.k.[.v.}.oXm.v.}./.i.v.r.J.M P.H.c.4Xx.i./.p.f.b./.|.n.}.n.i.v.x.t.",
"s.s.f.^.^.x.s.W.f.^.s.x.(.x.^.n.n.m.2.J [ r.%X%X@X|.'.2X_.}.v.}.XX<XQ.2XXX8Xi.}././.r.$XF A.g.[.z.}.<X_.'.u./.n.4.h.m.+Xv.c.t.x.",
"/.u.~.b.s.b.~.f.u.f.^.u.p.4.s.b.m.n.e.T _ l.}.>X}./.oXoX1X}.h.}.XXQ.z.f./.x.oXn.y.u.l.{.v N.l.c.XX!.t.1.Q.Q.5./.|.}.i.h.+XoXQ._.",
"x.u.x.u.u.x.p.i.Q.x.^.n.^.oX/.n.j.<.}.R ' C.H.T.+Xv.+X!.[.v. X|.e.XXoX!.oXv.j.m.h.}.k.F.f 9.H.H.c. X}.}.k.oXv.2.v.k.e.G.[.k.[.k.",
"0.k.e.7.A.S.0.7. Xq.=.r.r.Y.r.r.T.F.F.s K qXM.E.F.R.J.k.J.U.P.I.P.F.r.r.r.S.r.r.r.r.M.M.a L.8.A.F.G.G.q.T.r.J.7.q.C.$.C.N.A.q.J.",
"e 4 % * = - ; % % % * % * % 4 - * % & ) d # < + * < & 9 & * p # 1 t O O r 5 0 % % - % k c # @ 0 * - 1 8 = r * * * 5 q * < - * q ",
"[ | k.r.0.g.G.yXe.[  .0.2.H.H.5X<.,.k.%X{ %X%Xk.$XH.;X=Xk.=X6X*X{ &.Y.l.v.e.e.T.}.n.-X>XT.T.}.e.}.OX X}.}.OX XH.y ,X*X6X;X=X X X",
"}.v.t.c.}.{.v._ 0.H.OXc.H.[.v.v.}.!.OX X>X XH.k.Y.H.}.+XH.OXH.T.w A.2.j.j.5.5.p.5.+.O.p.o.4.n.^.i.t.t.t.i.x./.}.j e.v.}.c.h.h.v.",
"1.h.h.2.t.v.!.T X.k.h.v.v.h...3./.+X/.v.|./.v.XX|.}.+XXX X}.4XOXl S.2.'.p.b.p.j.+.~.O.+.p.b.b.s.y.f.f.Q.^.x.t.}.m h.3.}.z.i.x.`.",
"Q.!.x.}.v.h.<XT X.x.i./.v.Q.x._.oX}.x._.|./.Q./.i.v.+Xv.v.k.v.4X4 k./.n.4.b.p.n.].+.(.s.O.b.s.+.a.a.Q.Q.^.^.(.7Xb O.3.v.!._.z.W.",
"_.z.z.!.}.t.[.T ..h.i.z.!.d.Q.!.>.oX/.XX/.1X!.XXXXXX}.7Xc.c.OX5Xe k.(.f.b.b.4.b.~.a.+.~.(.W.W.f.i.^.W.Q.Q.^.y.1Xm t.z.v./.1.^.a.",
"c.t.v.c.k. Xv.Y ,.v.c.c.XXc.!.}.v.v./.v.<Xz.z.H.OX X XG.q.&XS.:Xr k.h.f.4.n.4.j.Q.z.f.^.u.i.y.z.z.d.Q.z.z.v.h.XXi k.l.,.c.H.z.v.",
"k.w.6.F.w.A.F.U #.q.J.P.G.G.r.6.8.9.G.J.q.H.L.F.F.F.P.K.B.L.L.qX+ M.2.h.<.j.A.A.w.k.<.0.k.q.D.C.w.6.J.:.$Xw.8.N.z 8.8.;.8.8.6.D.",
"X < X > : o 2 H S + # # > & t ; 1 + < : 3 q 7 < , > 2 , $ 2 $ S s o O 8 % = < @ 7 % y 7 & O 7 1 t < 1 < < 1 : s z 2 2 $ 2 * 2 * "
};
