/* XPM */
static char *_fa1d7edd62242afa2ad39bf8958fd79aiSOLLgGLsDr3mzY[] = {
/* columns rows colors chars-per-pixel */
"64 64 218 2 ",
"   c #1A0800",
".  c #220D00",
"X  c #261200",
"o  c #2B1500",
"O  c #2D1A00",
"+  c #2B1C08",
"@  c #311700",
"#  c #331C00",
"$  c #391E00",
"%  c #2F2107",
"&  c #2E220A",
"*  c #352203",
"=  c #3B2403",
"-  c #3D2804",
";  c #342409",
":  c #3B2609",
">  c #3D2A0A",
",  c #35290F",
"<  c #3A2B12",
"1  c #372A17",
"2  c #3F3013",
"3  c #422A04",
"4  c #432D0B",
"5  c #462707",
"6  c #4C310D",
"7  c #58380A",
"8  c #452E12",
"9  c #4A3618",
"0  c #5C3C15",
"q  c #523B1C",
"w  c #57381A",
"e  c #532F0B",
"r  c #613E12",
"t  c #4D3C23",
"y  c #453424",
"u  c #513D24",
"i  c #5B431D",
"p  c #694515",
"a  c #62451B",
"s  c #4F4023",
"d  c #5D4523",
"f  c #5A462A",
"g  c #5B4931",
"h  c #6A4D24",
"j  c #644A27",
"k  c #6C512C",
"l  c #72562D",
"z  c #74592E",
"x  c #78592D",
"c  c #634E32",
"v  c #675438",
"b  c #7A5D32",
"n  c #765C38",
"m  c #7E6235",
"M  c #685740",
"N  c #725E43",
"B  c #7C6645",
"V  c #7A6749",
"C  c #7C6D56",
"Z  c #82653E",
"A  c #836237",
"S  c #826741",
"D  c #846D4D",
"F  c #886D45",
"G  c #89724A",
"H  c #927245",
"J  c #93754C",
"K  c #97794C",
"L  c #887558",
"P  c #907852",
"I  c #997E54",
"U  c #927959",
"Y  c #8E7D61",
"T  c #9C8259",
"R  c #A48459",
"E  c #978464",
"W  c #A98B65",
"Q  c #AD936C",
"!  c #AA9266",
"~  c #B2936B",
"^  c #B99A6D",
"/  c #B59A74",
"(  c #BA9D73",
")  c #BBA178",
"_  c #C9A56D",
"`  c #C5AA7C",
"'  c #CBAB7C",
"]  c #C8A778",
"[  c #D3AD7B",
"{  c #D7AC75",
"}  c #D6B275",
"|  c #D4B27D",
" . c #DDB47C",
".. c #DEBB7D",
"X. c #E0AF75",
"o. c #E2B57C",
"O. c #E3BA7E",
"+. c #E8B57C",
"@. c #B49F82",
"#. c #B5A488",
"$. c #CDAE84",
"%. c #C4AC89",
"&. c #C5AC83",
"*. c #CCB284",
"=. c #CDB38B",
"-. c #D5B483",
";. c #DBB583",
":. c #D6B881",
">. c #DCBA85",
",. c #D2B58B",
"<. c #D9B68A",
"1. c #D4B98D",
"2. c #DCBC8C",
"3. c #CCB593",
"4. c #CDBB9C",
"5. c #CBB696",
"6. c #D5BB93",
"7. c #DCBD93",
"8. c #D4BD9B",
"9. c #DBBD99",
"0. c #D4B795",
"q. c #D8AF81",
"w. c #E3B782",
"e. c #E3BC84",
"r. c #EABE85",
"t. c #E3BD8B",
"y. c #E9BE8A",
"u. c #E2BE92",
"i. c #E1BE99",
"p. c #E8BF93",
"a. c #D3BEA2",
"s. c #DABFA3",
"d. c #CBBAA0",
"f. c #DEC08E",
"g. c #DDC294",
"h. c #D6C19D",
"j. c #DDC39B",
"k. c #DEC89F",
"l. c #D7C097",
"z. c #E5C084",
"x. c #EAC386",
"c. c #E4C18D",
"v. c #EBC48C",
"b. c #EEC98C",
"n. c #F2C28B",
"m. c #F0CA8C",
"M. c #E4C494",
"N. c #EAC593",
"B. c #E6C995",
"V. c #ECCA95",
"C. c #E4C59A",
"Z. c #E9C69B",
"A. c #E5CA9C",
"S. c #EBCB9C",
"D. c #F2CB94",
"F. c #F2CD9B",
"G. c #F6CA98",
"H. c #EED19D",
"J. c #F2D19D",
"K. c #F9D29C",
"L. c #F5D292",
"P. c #CFC0A3",
"I. c #D6C2A3",
"U. c #DCC5A3",
"Y. c #DDC9A5",
"T. c #DBC6A9",
"R. c #DDCAAC",
"E. c #D7C3A8",
"W. c #DDCBB1",
"Q. c #E3C6A2",
"!. c #E4CBA3",
"~. c #EBCDA2",
"^. c #E3CDAB",
"/. c #EBCFAA",
"(. c #F1CEA2",
"). c #F0CEA9",
"_. c #E7D0A6",
"`. c #EDD1A4",
"'. c #E5D0AC",
"]. c #ECD3AB",
"[. c #EFD8AE",
"{. c #EFD8A6",
"}. c #F1D1A2",
"|. c #F3D3A4",
" X c #FAD5A3",
".X c #F4D8A5",
"XX c #FBDAA5",
"oX c #F6D7A9",
"OX c #F3D5AB",
"+X c #F9D6AD",
"@X c #F5D9AC",
"#X c #FADAAC",
"$X c #E3CEB3",
"%X c #E8CFB0",
"&X c #E5D2B3",
"*X c #EBD5B3",
"=X c #EBD6B9",
"-X c #EDD8BA",
";X c #E7D4B8",
":X c #F3D6B2",
">X c #F4DAB3",
",X c #FADDB3",
"<X c #F5DDBB",
"1X c #FADEBA",
"2X c #F6D7B5",
"3X c #FFE1AE",
"4X c #FAE1B4",
"5X c #FDE4BC",
"6X c #FEE8BF",
"7X c #F7E2BB",
"8X c #F3DDC2",
"9X c #EFD9C2",
"0X c #F6E2C3",
"qX c #FCE5C2",
"wX c #FEEAC3",
"eX c #FBE9C8",
"rX c #FFF1CA",
"tX c #FFF7D8",
/* pixels */
"Z.S..XZ.V.XXV.K.c.V.V.H..X.X.X`.@XA.A.G m _.OX}. X X XK.F.D.oX XJ.J.F.J.XXV.XXoXoXS.S.C.U 2X<X].).+XoX}..X+X}.oX|.#XS.oX|.~.oX~.",
"B.f.B.| c.V.V.B.V.H.B.f.>.`.B.Z.~.C.g.F z ~.|.B.S.N.p.N.D.N.D.N.c.B.V.H.V.b.J.B.B.S.B.OXh Q.:Xj.OXM.Z.C.2.`.S.S.}.F.B.Z.Z.B.S.M.",
"g..XB.H.B.B.H.V.B.L.V.H..X.XB.A..X~.C.b b ~.oX}.V.K.n.G.z.z.z.H.x.b.N.S.} H.V.N.N.H.g.`.k Q.Q.Q.M.H.H.S.f.S.B.Z.S.S.V.M.S.B.M.M.",
"B.B.S.A.H.L.H.XXB.J.H.B.B.}.oXA.OXC.OXx l S.M.Z.XXK.G.x.D.x.b.L.b.e.K.x.b.x.b.z.2.c.B.H.l Q.<X/.2.Z.B.Z.c.N..XJ.B.|.V.B.F.B.M.Z.",
"B.B.M.B.F.M.S.J.S.2..XS..XZ.B.~.A.OXOXJ b M.(.B.e.D.D.m.O.x...x.m.n.D.v.x.m.v.V.N.S.>.3Xj j._.!.S.XX(.N.F.S.t.M.N.}.N.V.B.S.V.B.",
"A.g.~.A.~.B.1.~.A.M.`.A.~.~.`.`.~./.Q.Z F Q.~.S.S.B.F.t.G.V.V.>.b.N.F.t.x.v.N. X2.M.S.@Xn ].Y.>XC.,.|.Z.Z.S.Z.7.~.~.M.(.u.S.(.M.",
"^.8.h.3.^.U.Y.Y.Y.I.I.'.^.T.%X^.%X&X=Xv v *XU.U.C.Q.~.A.g.k.j.k.g.C.Q.~.7.A.g.Q.!.Q.!.R.v W.P.$X'.!.'.U.U.^.Q.^./.^.Q.&XU.Q.U.Q.",
"o # O $ O = o * 4 * $ * X * O # @ X @ D : $ $ : X @ $ = @ $ @ # $ o $ $ @ $ $ o $ O * q c u > # # * X O @ O O O @ : > : : @ . = ",
").,XOX/.,X:X>XB :X/.,X]./.,XOX5X>X4X>X<X7X>X].4XOX5X1X>X:X2X'.B Q OX/.].!.`.2XQ.(.2X|.OX/./.!.OX5X].,X_.:X:X7X1Xq 1X'.].4X~.:X:X",
"u.S.u.2.C.C.|.z $.~.`.C.(.C.(.M.H.A.~.OXA.`.@X@XC.(.S.OX~.,./.m U.>X:XQ.S..XS.~.<.M.M.t.`.~.M.g.' @XS.A.].!.OXg.i ].A.>XA.~.~.-.",
"N.N.B.B.S.Z.2.H &.S.B.B.H.B.#X|.H.B.S.H.oX.X@Xg.C.|.2.OXC.].*XP ]._.'.A.g.g.|.~.}.J.M.N.S.S.:.2.Z.`.B.].~.'._.!.h g.k.A.A.H.S.M.",
"N.v.z. XM.M.g.m ` `.OXg.' 2.J.K.B.H.H.H.].@X`.H..XC.OX~.].].6.j j._.Y.~.@XS.S.M.H.H.V.f.J.S.H.J.c.S.A.g.@XB._._.a k.`.g.k.S.g.{.",
"v.v.2.F.M.c.C.H ,.M.B.}.S.S.c.XXN.N.S.g.S.M.`..XoX2..X}.].~.].S k.A.~.`.S..X(.~.Z.F.F.2.Z.M.S.N.c.B.H.`.S.A.OX~.a k.A.7.B.S.S.H.",
"|.t.S.C.C.!.j.F ( ].>X].`.A.M.B.OXA.A.].A._._.C.`.A.~.OX^.*X*Xd &._.^./.OX~.~.~./.~.Z.Z.~.A.~.~.`.g.A.A.Y.!.Y.=.d _.Q.l.`.A.{.g.",
"!.0.Q.Y.U.T.W.L #.W.W.R.Y.^.Y.U.^.U.*X8X*X&X=X^.^.%X;XU.$X$XW.L R.'.R.W.^.Y.%Xs.<XT.%X^.;XT.$XT.^.U.&X^.;XT.9X#.f 4.a.a.8.'.Q.Y.",
"$ $ = * - O % D O % O *   O o O O @ O * O ; ; ; : * > # O ; & C 9 % 9 $ $ $ @ # @ @ = # X # ; . 4 = O . O # X C 9 O * : > 8 - 4 ",
"R I ' ` S.M.@XA.H.*.1.4X4X4XC.4XOX6X7XE V tXeXeXU.1X5XqXqXrX7XrX5XrX5XqXwX7X6X6X!.].2X<X#.0X4X].`.A.@X4X~.(.C.g.].C.A.'.@X{.oX@X",
"t.N.c.>.>.c.2.B.f.M.B.V.B.c.Z.2.B.B.A.D f '.R.&X1X).Z.M.}.`.A.].A.S.<.|.A.{.A.`.2.~././.6 6.k.7.S.M.H._ V.V.>.z.S.~.J.Z.S.S.>.H.",
"[  .y.w.D.r.x.b.w.v.V.x.L.F.F.c.2.oX7.I n '.'._.).(.G.Z.}.|.B.A.`.S.J.B.Z.B.`.S.M.f.C.%Xq U.C.M.|.N.c.N.>.t.t.D.J.Z.M.M.c.N.z.2.",
"v.w.v.v.v.x.v.r.v.r.r.e.v.v.r.V.N.u.M.Z ~ U.].>X(.Z.(.G.F.F.M.A.H.S.>.3XS.#X<.B.v.M.i./.d Q.u.Z.F. XS.N.G.t.D.G.t.<. X(.M.M.2.M.",
"v.e.x.O.O.r.x.z.O.x.x. .O.{ >.e.N.N.t.m W !.OX). XZ.N. XF.N.u.S.B.S.c.w.M.J.V.S.>.q.~.).5 9.C.Z.i.F.<.w.t.G.q.N.Z.(.<.B.|.F.G.N.",
";.v.>.c.;.V.>.c.c.V.c.F.c.XXN.N.N.M.~.m W !.Q.A./.Z.(.G.|.Z.~..XM.S.S.B.S.g.B.S.B.+Xi.:X8 8.C.Q.~.M.M.B.Z.Z.Z.7.u.C.7.!.Q.).Z.M.",
"7.i.C.6.C.C.g.C.~.6.9.<.~.!.~.C.!.Q.*XV Y ;XR.=X^.&X'.U.^.U.&X'.'.Y.C.j.A.U.Q.0.i.0.s.-Xt R.I.Q.U.^.^.!.Q.!.*X6.U.^.h.&X8.I.^.^.",
"5 $ @ = @ = $ @ $ = @ 3 @ X = = = 4 * L 9 X O # o $ O = > $ * % = o O 3 - : 4 o o $ @ c g O : O 4 @ = 3 @ 3 = = * # ; > > = @ - ",
"^ ) ,.*.6.6._.wX=.) *.=.7.A./.OX=.6.=.>X) '.^.0.Q.k.k.!.0.*X>X>XV / Q.M.Z.!.1.C.(.u.Q.~.!.'.~.g._.A.`..XS.~.~.A.e *X_.7XOX@X].H.",
"C.B.7.7.C.A.C.I 6.M.H.k.Z.~.M.S.H.C.].g.`.`.~.A.C.~.~.~.(.OXC.1Xa 9.u.t.c.t.2.-.t.w.{ t.' ;.c.B.z.:.c.| c.t.B.J.0 2.B.A.B.1.2.f.",
"N.<.u.t.p.M.p.J ~ i.B.C.Z.;.' ] .XoXZ.S.`.u.N.S.OXZ.S.|.Z.Q.+XQ.5 i.y.N.N.t.t.N.o.r. .n.} v.z...;.>.>.O.v.v.<.K.7 >.-.f.2.2.f.b.",
"p.p.Z.F.t.<.+XK ( <.u.N.N.D.y.F.V.S.B.c.F. XZ.N.;.M.|.Z.Q.i.u.+X0 i.G.v.o.v.w.t.n.r.o.X.} V.e. ...c.w.r.v.m.x.XXp } | f.c.J.z.z.",
"M.N.B.M.S.2.~.H ' G.<.N.B.t.V.V.;.Z.S.F.F.D.<.F.(.Z.S.#XZ.7.~.(.0 Z.v.y.w.o.w.w.y.+.r.r.e.r.w.w. .v.r.v.n.v.t.N.7 2.2.M.c.;.V.e.",
"M.-.M.7.~.!.l.K &.C.!.M.S.S.M.Z.M.C.S.S.#Xt.S.Z.(.A.:X/.7./.^.:Xw 0.p.t.;.S.i.p.y.y.w.y.>.>.t.N.t.c.t.N.t.M.Z.+Xe 6.M.6.M.S.B.B.",
"U.6.j.Y.3.U.T.E 3.a.R.^.^.j.6.=.0.8.Y.U.3./.^.U.Q.$XR.T.T.=XT.=X8 a.8.6.9.7.U.Q.i.7.,.6.l.8.s.0.j.6./.9.^.0.h.-Xq 4.a.I.4.8.3.U.",
"* * * # # > * v 9 O : # O = - = > # X * 3 - @ O > : 4 # O # < V u . $ $ . o $ $ 5 @ $ $ - : = - > @ 4 - = 4 * v ; = O ; ; > * = ",
"].A.S.{.Z.H..X#X<.|.~.~.OX`.@X].{.k.j.) F !.>XOXoX5X,X#X|.oX~.@X2XQ.~.+X|.S.,X+X2XS.(.~.P 9X2X1X1X>X{._.].>XOX7X6X4X_.].>X[.[.[.",
"M.M.B.| c.c..XS.c.J.B.<.M.J.|.S.!.A.l.z b |.C.N.J.r.N.F.t.v.H.c.v.F.M.p.v.b.N.S.~.C.S.}.w s.%X,.C.~.B.g.<.OXC.A.S.].{.S.B.g.C.B.",
"c..XB.H.B.V.S.V.c.L.M.}.J.S.Z.A.].A.,.z m g.4XS.S.D.b.K.e.c.c.K.D.b.F.F.} b.J.t.B.B.g.@Xj ^.U.!.<.S.S.M.B.S.Z.|.B.Z.Z.Z.S.B.B.g.",
"B.H.S.H.J.V.S.3XB.H..XS.S..X`.`..X{.].z h C.B.S. XL.m.b.m.b.v.b.x.e.F.t.L...e.N.| S.B.H.w Q.*X~.B.V.|.S.N.M.#X.XB.B.S.F.F.c.N.B.",
"f.2.M.c.N.N.M.XXJ.| XXM.#XB.M.`.M.(.~.b x .XF.M.z.L.m.x.O.x...L.n.x. XD.b.x.b.H.S.S.:.H.i 8.!.A.Z.J.F.p.N.S.N.t.Z.F.N.B.N.G.F.Z.",
"H.M.A.S..X`.7.`.H.B.~.k._.A.@X].Q.].U.J S 9.~.S.M.S.D.t.V.N.c.c.c.c. X>.z.z.V.A.-.M.H.OXi Y.^.[.|.t.oXB.~.|.Z.7.(.~.7.C.M.~.(.S.",
"/.8.I.0.^.j.U.^.8.U.8.;X&Xj.Y.Y.R.;XE.c v -XQ.U.!.C.].].6.j.!.j.A.A.j.!.A.B.j.[.].k._.U.N R.T.T.&XY.].h.^.Y.^.*X%X&X'.'.Y.4.j.Q.",
"@ = # = $ 4 * : > o : * 4 > # # = * * V q X O O 3 $ 3 = = # @ = O * = = - 5 = = O * # i g f : * O : * : O ; ;   O * , = = * = * ",
"2X,XOX~.OXOX:X/ 4X].*X'.OX,X>XwX<XqX[.5X>X7X>X>XOX,X5X1XOX1X/.U T 6X].>X@XoXOXOX).OX,X,X:X).:XOXOX<X'.>X>X/.-XqXq <X^.^.].OX*XOX",
"t.N.u.2.C.<.).P ) H._.C.A.S.`.M.~.M.k.@XA.`.OX,X2..XZ.~.~.=.^.D >X].~.~.A.S.~.N.u.u.;.w.|.Z.Z.<.` ~.|.!.OX/./.~.k ~.C.!.OX!.!.1.",
"M.N.M.B.N.Z.7.! | A.A.~.}.B..X.X}.M.H.A.{.{.@Xf.S.{.C.OXQ.>X*XT ].].'.j.A.`.oX}.F.S.Z.J.S.B.2.;.S.C.S.~.~.~.,XA.h 7.~.~.~.}..XM.",
"v.S.2.M.B.B.-.T ` A.OXM.| c.K.XXS.H.`.{..X.X{.H.@XB.oX>X:X~.9.B k.A._.].@XC.M.-.(.Z.J.-.J.F.B..Xt.|.S.i.+XA.Q.,Xh 7.~.M.S.Z.S.~.",
"V.>.c.H.2.f.B.T -.B.B..XH.V.N.XXH.S..XB.H.B.{.XXXXg..XB.].>X^.P k._.{.A.].#XoX`.|.B.S.2.t.Z.H.Z.M.N.|.(.|.A.OX,Xa Q.C.9.oXZ.(.F.",
"S.M.C.~.C._.6.P ! ].].>XH.H.M.S..XA.!.].k.{.!.A..Xj.].@XQ.*X*XL h._._.].OX_.~.~.C.OXQ.OXC.!.!._.OXi.C.~.!.Q./.Q.e /.C.Q.Z.~.|.i.",
"_.l.Y.U.I.R.$XL #.W.&XR.Y._.Q.8./.s.*X-X-XR.&XR.^.&X'.T.&XW.W.v W.&X&X&XT.$X8X5.=XR.$X$XE.I.$XR.^.$X^.^.&X&X;X9Xg d.5.E.5.;X*XQ.",
"= O * * % > < Y , O ; = O @ X X o # ; O O % O O * O O O ; % & C O O ; ; > ; O # : . 8 + % ; & 2 = $ X * 4 X + V 8 ; = ; # > # # ",
"K K ^ ( @XH.>X4X{.l.A.4X4X4X`.@X].7X^.D E 0X<X0X8.>X5X4XeXwX-XqXrXqX1XqXeX7XwX6Xg.OX8X8XL 7X>X].*XA.<XoX~.~.~.M.OX6.j.].4X!.,X,X",
"f.>.v.f.| >.f.c.f.c.N.M.B.c.B.f.B.A.`.i f T.&XU.'.`.S.<.~.~._.[._.`.1.(.A.{.A._.B.(.).Q.L h.g.Z.}.Z.S.| N.N.| N.M.XXZ.C.S.}.c.Z.",
";.:.v...N.r.v.v.f.b.b.V.K.V.H.z.p.(.Z.l k ^.!.].,XS.Z.S.oX|.~.g.H.C.S.(.A.C.~.H.7.S.9./.j /.C.g.+XM.z.S.t.>.t.N.S.B.N.V.[ Z.M.2.",
"r.r.v.x.x.t.r.D.z.x.e.z.D.r.N.N.D.Z.<.A ! 9.,XOXoX(.V.XXN.F.C.~.S.XXN.#X(.#X2.Z.N.N.9.:Xn Q.C.S.M.F.D.N.F.w.D.v.;.>.|.|.S.M.t.t.",
"m.o.y.r.r.o.r.w.o.x.v.r.o.w.e.v.N.Z.t.H W i.~.+XS.N.S. XF.F.p.S.S.M.y.t.v.N.S.B.-.<.i.).d 8.g.g.S.D.>.w.v.N.;.G.F.S.2.<.#X(.Z.N.",
"t.t.t.y.e.N.t.;.t.M.v.N.N.K.N.p.u.2.Q.J ~ Q.^.~.OXZ.(.B.oXS.~.`.C.|.G.N.F.C.M.A.2.(.i./.q 4.~.!.M.Z.B.S.p.(.B.-.C.A.2.~.M.Z.S.Z.",
"7.9.i.$.C.l.j.C.].j.6.g.!./.C.j./.*Xs.t L <XI.=X^.^.*X'.^.h.*X&X&X^.9.9.A.Y.Y.6.Q.9.s.E.t $X4.U.^.!.!.k.~.j.'.j.9.Y.4.R.U.Y.9.^.",
"4 3 O = @ 3 O o @ O @ @ O O $ $ # # # U 9 o 4 O $ : o > @ : 4 O : 4 O @ - : = @ O @ o f s O O - # * * = @ 4 $ O # : - * O * # 4 ",
"Q ( 1.6.0.=.j.5X6.! ( $.=.C.j.@X$.%.9.>XQ :X~.0.!.k.].].A.'.<X<XQ ) ~.C.M.1.1.C.(.p.).+X~.OX`.<.`.A.B.`.C.|.|.`.0 [.>X7X>X'..X`.",
"B.S.7.7.C.OXA.I ,.C.].C.~.~.C.B.|.C.~.~.,X~.Q.A.A.A._.S.C.OXQ.~.e U.-.2.M.:.M.t.w.o. .<.' :.V.F.>.c.2.:.t.t.u.~.i 7.g.~.C.2.<.B.",
"2.g.M.2.2.A.2.I ( 7.M.B.B.<.] ' B.oXS.M.(.Z.Z.Z.}.}.~.`.`.~.).~.a Q.<.D.t.c.2.e.X.r.{ o.t.r.v.w.| ..e.c.t.N.t.N.p c.| B.2.c.2.V.",
"t.M.B.~.M.2.S.K ( M.7.S.B.N.N.S.(.F.Z.V.F.F.p.N.<.B.oXC.A.2.p.1X5 i.N.m.O.y.t.t.G.+.n.+._ r.+.o.r.r.v.v.n.v.D. Xp ] -.M.M.N.v.t.",
"V.N.t.N.S.2.S.H ^ 2.2.t.N.t.N.v.[ S.N.F.N.G.y. XF.S.S.oX9.i.).+Xe Z.n.w.w.v.;.y.r.+.X.r.x.r.w.e. .v.r.r.n.N.;.K.p <.M.M.Z.[ K.w.",
"M.2.M.M.A.A.i.J $.S.C.N.F.N.N.Z.B.C.C.Z.+XN.M.C.~.`.OX!.8.Q.C.2X6 9.t.t.e.c.;.p.N.y.y.y.t.>.t.c.c.c.M.t.N.M.<.).0 j.l.=.S.Z.2.M.",
"k.l.6.^.l.U.'.U %.s.'.^.U.Q.j.6.h.U.Y.U.7.!._.Y.*XY.W.R.W.9X$X9X# a.0.2.1.9.^.Q.0.i.1.=.Y.l.Y.j.j.=._.6.'.9.I.Y.c I.4.h.I.h.3.!.",
". * X * ; O ; N N O # # = $ = * ; O > $ @ 4 > * ; , , 1 + 1 + M y o X = X $ # $ 5 $ 4 * % O > > > = * # # > # t t ; & , & O * % "
};
